<svg xmlns="http://www.w3.org/2000/svg" viewBox="0 0 520.4 262.8"><path fill="#E4E7E7" d="M513.8 176.4l-10.1 86.5h-53l-10.1-86.5h73.2z"/><path d="M449.9 256.2l.8 6.6h53l.8-6.6zm-8.9-76.5l7.9 67.9 64.5-67.5v-.4z" fill="#C8CBCB"/><path fill="#349886" d="M477.2 196.3c-11 0-20 8.9-20 20 0 11 8.9 20 20 20 11 0 20-8.9 20-20s-9-20-20-20zm9.9 28.8c-1.8-1-4.1-1.7-6.8-2l.1-1.1c2-1.1 3.4-3.3 3.4-5.8a6.7 6.7 0 0 0-13.4 0c0 2.5 1.4 4.6 3.4 5.8l.1 1.1c-2.7.3-5 1-6.8 2-2.1-2.4-3.5-5.4-3.5-8.9 0-7.3 6-13.3 13.3-13.3 7.3 0 13.3 6 13.3 13.3.3 3.5-1 6.6-3.1 8.9z"/><path fill="#2B414D" d="M440.6 166.4h73.2c3.7 0 6.7 3 6.7 6.7v6.7H434V173c0-3.6 2.9-6.6 6.6-6.6z"/><path fill="#475F6C" d="M450.6 156.4h53.2c3.7 0 6.7 3 6.7 6.7v3.3H444v-3.3c-.1-3.7 2.9-6.7 6.6-6.7z"/><path fill="#2E8676" d="M477.2 209.6c-3.7 0-6.7 3-6.7 6.7 0 2.3 1.2 4.3 3.1 5.5l9-9.4a6.63 6.63 0 0 0-5.4-2.8zm0-13.3c-11 0-20 8.9-20 20 0 6.1 2.8 11.6 7.1 15.2l7.7-8c-1.8.4-3.3.9-4.6 1.6-2.1-2.4-3.5-5.4-3.5-8.9 0-7.3 6-13.3 13.3-13.3 4 0 7.5 1.8 10 4.6l4.6-4.8c-3.6-3.9-8.8-6.4-14.6-6.4z"/><path fill="#415E6D" d="M39.4 124.7l30 8c2.8.7 4.4 3.6 3.7 6.3L40.9 259c-.7 2.8-3.6 4.4-6.3 3.7l-30-8c-2.8-.7-4.4-3.6-3.7-6.3l32.1-120c.8-2.8 3.6-4.4 6.4-3.7z"/><path fill="#2C4552" d="M28.8 225.1c4.6 1.2 7.3 6 6.1 10.6-1.2 4.6-6 7.3-10.6 6.1-4.6-1.2-7.3-6-6.1-10.6 1.3-4.6 6-7.4 10.6-6.1z"/><path fill="#FFF" d="M30.2 220.1c-7.4-2-15 2.4-16.9 9.8-2 7.4 2.4 14.9 9.8 16.9 7.4 2 15-2.4 16.9-9.8 1.9-7.3-2.5-14.9-9.8-16.9zm4.7 15.6c-1.2 4.6-6 7.3-10.6 6.1-4.6-1.2-7.3-6-6.1-10.6 1.2-4.6 6-7.3 10.6-6.1 4.6 1.3 7.4 6 6.1 10.6zm28.4-92.8l-23-6.2c-.9-.2-1.8.3-2.1 1.2l-16.7 63c-.2.9.3 1.9 1.2 2.1l23 6.2c.9.2 1.8-.3 2.1-1.2l16.7-63c.3-.9-.3-1.8-1.2-2.1z"/><path fill="#B2B2B2" d="M35.4 166l-.9 3.2 17 4.3.9-3.2-17-4.3zm-3 11.3l17 4.3.9-3.2-17-4.3-.9 3.2z"/><path fill="#26A6D1" d="M41.3 147l16.4 4.3-2.6 9.6-16.4-4.3 2.6-9.6z"/><path fill="#415E6D" d="M119.9 128H151c2.9 0 5.2 2.3 5.2 5.2v124.4c0 2.9-2.3 5.2-5.2 5.2h-31.1c-2.9 0-5.2-2.3-5.2-5.2V133.2c0-2.8 2.3-5.2 5.2-5.2z"/><path fill="#2C4552" d="M134.6 230c5.2 0 9.5 3.9 9.5 8.6 0 4.8-4.3 8.6-9.5 8.6s-9.5-3.9-9.5-8.6c0-4.8 4.2-8.6 9.5-8.6z"/><path fill="#415E6D" d="M78.4 128h31.1c2.9 0 5.2 2.3 5.2 5.2v124.4c0 2.9-2.3 5.2-5.2 5.2H78.4c-2.9 0-5.2-2.3-5.2-5.2V133.2c0-2.8 2.4-5.2 5.2-5.2z"/><path fill="#2C4552" d="M94 230c4.8 0 8.6 3.9 8.6 8.6 0 4.8-3.9 8.6-8.6 8.6s-8.6-3.9-8.6-8.6c-.1-4.8 3.8-8.6 8.6-8.6z"/><path fill="#FFF" d="M94 224.8c-7.6 0-13.8 6.2-13.8 13.8 0 7.6 6.2 13.8 13.8 13.8s13.8-6.2 13.8-13.8c0-7.6-6.2-13.8-13.8-13.8zm0 22.5c-4.8 0-8.6-3.9-8.6-8.6 0-4.8 3.9-8.6 8.6-8.6s8.6 3.9 8.6 8.6c0 4.7-3.9 8.6-8.6 8.6zm12.1-105.4H81.9c-1 0-1.7.8-1.7 1.7v65.7c0 1 .8 1.7 1.7 1.7h24.2c1 0 1.7-.8 1.7-1.7v-65.7c0-1-.8-1.7-1.7-1.7z"/><path fill="#B2B2B2" d="M85.3 169.5v3.5h17.3v-3.5H85.3zm0 12.1h17.3v-3.5H85.3v3.5z"/><path fill="#4BBFAA" d="M85.3 152.2h17.3v10.4H85.3v-10.4z"/><path fill="#344B57" d="M76.7 257.6V133.2c0-2.9 2.3-5.2 5.2-5.2h-3.5c-2.9 0-5.2 2.3-5.2 5.2v124.4c0 2.9 2.3 5.2 5.2 5.2h3.5c-2.9 0-5.2-2.3-5.2-5.2zm41.5 0V133.2c0-2.9 2.3-5.2 5.2-5.2h-3.5c-2.9 0-5.2 2.3-5.2 5.2v124.4c0 2.9 2.3 5.2 5.2 5.2h3.5c-2.9 0-5.2-2.3-5.2-5.2z"/><path fill="#233742" d="M134.6 230c-3.3 0-6.1 1.5-7.8 3.7 1.7-1.3 3.8-2 6.1-2 5.2 0 9.5 3.9 9.5 8.6 0 1.8-.6 3.5-1.7 4.9 2.1-1.6 3.4-4 3.4-6.6 0-4.8-4.3-8.6-9.5-8.6z"/><path fill="#FFF" d="M135.4 224.8c-7.6 0-13.8 6.2-13.8 13.8 0 7.6 6.2 13.8 13.8 13.8 7.6 0 13.8-6.2 13.8-13.8.1-7.6-6.1-13.8-13.8-13.8zm0 22.5c-4.8 0-8.6-3.9-8.6-8.6 0-4.8 3.9-8.6 8.6-8.6 4.8 0 8.6 3.9 8.6 8.6.1 4.7-3.8 8.6-8.6 8.6zm12.1-105.4h-24.2c-1 0-1.7.8-1.7 1.7v65.7c0 1 .8 1.7 1.7 1.7h24.2c1 0 1.7-.8 1.7-1.7v-65.7c.1-1-.7-1.7-1.7-1.7z"/><path fill="#B2B2B2" d="M126.8 169.5v3.5h17.3v-3.5h-17.3zm0 12.1h17.3v-3.5h-17.3v3.5z"/><path fill="#F4B459" d="M126.8 152.2h17.3v10.4h-17.3v-10.4z"/><path fill="#233742" d="M94 230c-2.8 0-5.3 1.4-6.9 3.5 1.4-1.1 3.2-1.8 5.2-1.8 4.8 0 8.6 3.9 8.6 8.6 0 1.9-.7 3.7-1.8 5.2 2.1-1.6 3.5-4.1 3.5-6.9 0-4.8-3.9-8.6-8.6-8.6zm-65.2-4.9c-3.5-.9-7.1.5-9.2 3.2 2.1-1.6 4.8-2.2 7.4-1.5 4.6 1.2 7.3 6 6.1 10.6-.3 1.1-.8 2-1.4 2.9 1.5-1.1 2.6-2.7 3.1-4.6 1.4-4.6-1.4-9.4-6-10.6z"/><path fill="#344B57" d="M39.4 124.7c-2.8-.7-5.6.9-6.3 3.7L.8 248.3c-.7 2.8.9 5.6 3.7 6.3l2.7.7c-2.7-.8-4.4-3.6-3.6-6.4L35.8 129c.7-2.6 3.3-4.2 5.9-3.7l-2.3-.6z"/><path fill="#F4B459" d="M65.8 19h75.3c1.9 0 3.4 1.5 3.4 3.4v75.3c0 1.9-1.5 3.4-3.4 3.4H65.8c-1.9 0-3.4-1.5-3.4-3.4V22.4c0-1.9 1.5-3.4 3.4-3.4z"/><path fill="#FFF" d="M72.7 25.8h61.6c1.9 0 3.4 1.5 3.4 3.4v60.4c0 1.9-1.5 3.4-3.4 3.4H72.7c-1.9 0-3.4-1.5-3.4-3.4V29.3c-.1-1.9 1.5-3.5 3.4-3.5z"/><path fill="#ECECEC" d="M69.2 57.8V29.3c0-1.9 1.5-3.4 3.4-3.4h61.6c1.9 0 3.4 1.5 3.4 3.4v28.5"/><path fill="#D7B442" d="M71.5 62.3h63.9c1.9 0 3.4 1.5 3.4 3.4l3.4 16c0 1.9-1.5 3.4-3.4 3.4H68.1c-1.9 0-3.4-1.5-3.4-3.4l3.4-16c0-1.8 1.5-3.4 3.4-3.4z"/><path fill="#E6E6E6" d="M71.5 62.3c-.9 0-1.7.3-2.3.9v21.9h68.4V63.2c-.6-.5-1.4-.9-2.3-.9H71.5z"/><path fill="#C8A73B" d="M72.7 58.9h61.6c1.9 0 3.4 1.5 3.4 3.4l3.4 16c0 1.9-1.5 3.4-3.4 3.4H69.2c-1.9 0-3.4-1.5-3.4-3.4l3.4-16c0-1.9 1.6-3.4 3.5-3.4z"/><path fill="#D4D4D4" d="M134.2 58.9H72.7c-1.9 0-3.4 1.5-3.4 3.4v19.4h68.4V62.3c0-1.9-1.6-3.4-3.5-3.4z"/><path fill="#FFF" d="M72.7 57.8h61.6c1.9 0 3.4 1.5 3.4 3.4l3.4 16c0 1.9-1.5 3.4-3.4 3.4H69.2c-1.9 0-3.4-1.5-3.4-3.4l3.4-16c0-1.9 1.6-3.4 3.5-3.4z"/><path fill="#334D5D" d="M100.5 64.7h-11c.2-.6.6-1.1 1-1.7.4-.5.9-1 1.5-1.5.5-.5 1.1-.9 1.7-1.4.6-.4 1.2-.8 1.7-1.1.8-.5 1.6-1 2.2-1.5.7-.5 1.3-1 1.8-1.6.5-.6.9-1.2 1.2-1.9.3-.7.4-1.5.4-2.3 0-1.1-.2-2-.6-2.8-.4-.8-1-1.5-1.7-2S97 46 96 45.8c-1-.3-2-.4-3.2-.4-3 0-5.7.9-8.1 2.7-.3.2-.4.5-.1.9l1.6 2.4c.1.2.3.3.4.3.2 0 .3-.1.5-.2.9-.6 1.8-1.1 2.7-1.4s1.8-.4 2.6-.4c.6 0 1.2.1 1.6.2.4.1.8.3 1 .5.3.2.4.4.5.7.1.3.2.5.2.8 0 .3 0 .6-.1.9-.1.3-.3.6-.5.8s-.6.6-1 .9c-.4.3-1 .7-1.6 1.1-.8.5-1.6 1.1-2.6 1.8s-2 1.5-2.9 2.4c-1 1-1.8 1.9-2.4 2.9-.6 1-.9 1.9-.9 2.7 0 1.3.3 2.4.8 2.9.5.4 1.3.6 2.3.6h13.6c.3 0 .4-.1.5-.2.1-.1.1-.3.1-.5v-3c0-.3 0-.5-.1-.6 0 .1-.2.1-.4.1zm22.5-6.9c-.5-.9-1.1-1.7-1.9-2.3-.8-.6-1.7-1-2.8-1.3-1.1-.3-2.2-.4-3.4-.4-.4 0-.8 0-1.2.1-.4 0-.9.1-1.3.2s-.9.1-1.3.2-.8.2-1.1.3c.3-1.6 1-2.9 2.1-3.7 1.1-.9 2.5-1.3 4.2-1.3.6 0 1.1 0 1.7.1.6.1 1.1.2 1.6.3.2 0 .4.1.5.1.2 0 .3-.2.4-.4l.8-2.7c.1-.4.1-.6 0-.7-.1-.1-.2-.2-.4-.2-.7-.2-1.5-.4-2.4-.5-.9-.1-1.7-.2-2.5-.2-2 0-3.7.3-5.1 1-1.4.7-2.6 1.6-3.6 2.7-.9 1.2-1.6 2.6-2.1 4.1-.5 1.6-.7 3.3-.7 5.1 0 1.6.2 3.1.6 4.5.4 1.3 1 2.5 1.8 3.4.8.9 1.9 1.7 3.1 2.2 1.2.5 2.7.8 4.4.8 1.2 0 2.3-.2 3.4-.5s2.1-.8 2.9-1.5c.9-.7 1.5-1.5 2.1-2.5.5-1 .8-2.2.8-3.6.1-1.3-.1-2.4-.6-3.3zm-5.7 6c-.8.6-1.7.9-2.9.9-1.5 0-2.6-.5-3.5-1.5-.9-1-1.3-2.3-1.3-4v-.8c.9-.2 1.8-.4 2.5-.6.8-.1 1.6-.2 2.4-.2 1.3 0 2.2.3 2.9.9.6.6 1 1.4 1 2.5 0 1.3-.3 2.2-1.1 2.8z"/><path fill="#E27C3F" d="M97.8 31.5h11.4c1.9 0 3.4 1.5 3.4 3.4s-1.5 3.4-3.4 3.4H97.8c-1.9 0-3.4-1.5-3.4-3.4-.1-1.8 1.5-3.4 3.4-3.4z"/><path fill="#727272" d="M75.5 53.2c-.9 0-1.7.8-1.7 1.7v5.7c0 .9.8 1.7 1.7 1.7s1.7-.8 1.7-1.7v-5.7c0-.9-.7-1.7-1.7-1.7zm55.9 0c-.9 0-1.7.8-1.7 1.7v5.7c0 .9.8 1.7 1.7 1.7.9 0 1.7-.8 1.7-1.7v-5.7c0-.9-.8-1.7-1.7-1.7z"/><path fill="#4A606E" d="M117.5 58.7c.6.6 1 1.4 1 2.5 0 1.2-.4 2.1-1.1 2.7-.8.6-1.7.9-2.9.9-1.5 0-2.6-.5-3.5-1.5-.9-1-1.3-2.3-1.3-4v-.8c.9-.2 1.8-.4 2.5-.6.7-.1 1.4-.2 2.2-.2h-9.8v.6c0 1.6.2 3.1.6 4.5.4 1.3 1 2.5 1.8 3.4.8.9 1.9 1.7 3.1 2.2 1.2.5 2.7.8 4.4.8 1.2 0 2.3-.2 3.4-.5s2.1-.8 2.9-1.5 1.5-1.5 2.1-2.5c.5-1 .8-2.2.8-3.6 0-1.3-.2-2.4-.7-3.3h-8.2c1.1 0 2.1.3 2.7.9zM86.8 69.1h13.6c.3 0 .4-.1.5-.2.1-.1.1-.3.1-.5v-3c0-.3 0-.5-.1-.6-.1-.1-.2-.1-.5-.1h-11c.2-.6.6-1.1 1-1.7.4-.5.9-1 1.5-1.5.5-.5 1.1-.9 1.7-1.4.6-.4 1.2-.8 1.7-1.1.7-.4 1.4-.8 2-1.3h-7.8c-.9.6-1.7 1.4-2.6 2.2-1 1-1.8 1.9-2.4 2.9-.6 1-.9 1.9-.9 2.7 0 1.3.3 2.4.8 2.9.7.5 1.4.7 2.4.7z"/><path fill="#D7B442" d="M134.2 93.1H72.7c-1.9 0-3.4-1.5-3.4-3.4v1.1c0 1.9 1.5 3.4 3.4 3.4h61.6c1.9 0 3.4-1.5 3.4-3.4v-1.1c0 1.9-1.6 3.4-3.5 3.4z"/><path fill="#868686" d="M75.5 53.2c-.9 0-1.7.8-1.7 1.7v4.6c0 .9.8 1.7 1.7 1.7s1.7-.8 1.7-1.7v-4.6c0-.9-.7-1.7-1.7-1.7zm55.9 0c-.9 0-1.7.8-1.7 1.7v4.6c0 .9.8 1.7 1.7 1.7.9 0 1.7-.8 1.7-1.7v-4.6c0-.9-.8-1.7-1.7-1.7z"/><path fill="#334D5D" d="M421 .8c38.2 0 69.3 31 69.3 69.3s-31 69.3-69.3 69.3-69.3-31-69.3-69.3S382.8.8 421 .8z"/><path fill="#FFF" d="M421 11.2c32.5 0 58.9 26.4 58.9 58.9S453.5 129 421 129s-58.9-26.4-58.9-58.9 26.4-58.9 58.9-58.9z"/><path fill="#9EA7A8" d="M421 17c-1.3 0-2.3 1-2.3 2.3 0 1.3 1 2.3 2.3 2.3 1.3 0 2.3-1 2.3-2.3 0-1.3-1-2.3-2.3-2.3zm50.8 50.8c-1.3 0-2.3 1-2.3 2.3 0 1.3 1 2.3 2.3 2.3s2.3-1 2.3-2.3c0-1.3-1-2.3-2.3-2.3zm-101.6 0c-1.3 0-2.3 1-2.3 2.3 0 1.3 1 2.3 2.3 2.3s2.3-1 2.3-2.3c0-1.3-1-2.3-2.3-2.3zm13.9-34.6c-1.3 0-2.3 1-2.3 2.3 0 1.3 1 2.3 2.3 2.3s2.3-1 2.3-2.3c0-1.3-1.1-2.3-2.3-2.3zm73.8 0c-1.3 0-2.3 1-2.3 2.3 0 1.3 1 2.3 2.3 2.3s2.3-1 2.3-2.3c.1-1.3-1-2.3-2.3-2.3zm0 69.2c-1.3 0-2.3 1-2.3 2.3 0 1.3 1 2.3 2.3 2.3s2.3-1 2.3-2.3c.1-1.2-1-2.3-2.3-2.3zm-73.8 0c-1.3 0-2.3 1-2.3 2.3 0 1.3 1 2.3 2.3 2.3s2.3-1 2.3-2.3c0-1.2-1.1-2.3-2.3-2.3zm36.9 16.2c-1.3 0-2.3 1-2.3 2.3 0 1.3 1 2.3 2.3 2.3 1.3 0 2.3-1 2.3-2.3 0-1.3-1-2.3-2.3-2.3z"/><path fill="#DF5A48" d="M421 65.5h27.7c2.5 0 4.6 2.1 4.6 4.6 0 2.5-2.1 4.6-4.6 4.6H421c-2.5 0-4.6-2.1-4.6-4.6 0-2.5 2.1-4.6 4.6-4.6z"/><path fill="#EB8B6B" d="M421 30.9c2.5 0 4.6 2.1 4.6 4.6v34.6c0 2.5-2.1 4.6-4.6 4.6-2.5 0-4.6-2.1-4.6-4.6V35.5c0-2.6 2.1-4.6 4.6-4.6z"/><path fill="#E4E7E7" d="M145.5 237.2h273.3v17.1c0 4.7-3.8 8.5-8.5 8.5H154c-4.7 0-8.5-3.8-8.5-8.5v-17.1z"/><path fill="#CDCFCF" d="M265 237.2h34.2v8.6H265v-8.6z"/><path fill="#324D5B" d="M179.6 83.5h205c4.7 0 8.5 3.8 8.5 8.5v145.2h-222V92.1c0-4.8 3.8-8.6 8.5-8.6z"/><path fill="#576E78" d="M188.2 100.6H376V220H188.2V100.6z"/></svg>