<svg xmlns="http://www.w3.org/2000/svg" viewBox="0 0 600 600"><path fill="#4BBFAA" d="M300 .8c165.1 0 298.9 133.8 298.9 298.9s-133.8 299-298.9 299S1.1 464.8 1.1 299.7 134.9.8 300 .8z"/><path fill="#EFC84A" d="M145.9 131.6h308.3c7.7 0 14 6.3 14 14v308.3c0 7.7-6.3 14-14 14H145.9c-7.7 0-14-6.3-14-14V145.6c-.1-7.7 6.2-14 14-14z"/><path fill="#FFF" d="M173.9 159.6h252.2c7.7 0 14 6.3 14 14v247.6c0 7.7-6.3 14-14 14H173.9c-7.7 0-14-6.3-14-14V173.6c0-7.7 6.2-14 14-14z"/><path fill="#ECECEC" d="M159.9 290.4V173.6c0-7.7 6.3-14 14-14h252.2c7.7 0 14 6.3 14 14v116.8"/><path fill="#D8B442" d="M169.2 309.1h261.6c7.7 0 14 6.3 14 14l14 65.4c0 7.7-6.3 14-14 14H155.2c-7.7 0-14-6.3-14-14l14-65.4c0-7.7 6.3-14 14-14z"/><path fill="#E6E6E5" d="M169.2 309.1c-3.6 0-6.9 1.4-9.3 3.6v89.8h280.3v-89.8c-2.5-2.2-5.7-3.6-9.3-3.6H169.2z"/><path fill="#C9A83B" d="M173.9 295.1h252.2c7.7 0 14 6.3 14 14l14 65.4c0 7.7-6.3 14-14 14H159.9c-7.7 0-14-6.3-14-14l14-65.4c0-7.7 6.2-14 14-14z"/><path fill="#D4D4D4" d="M426.1 295.1H173.9c-7.7 0-14 6.3-14 14v79.4h280.3v-79.4c-.1-7.7-6.3-14-14.1-14z"/><path fill="#FFF" d="M173.9 290.4h252.2c7.7 0 14 6.3 14 14l14 65.4c0 7.7-6.3 14-14 14H159.9c-7.7 0-14-6.3-14-14l14-65.4c0-7.7 6.2-14 14-14z"/><path fill="#344D5D" d="M286.7 318.8h-45.2c.9-2.3 2.3-4.6 4.1-6.8 1.8-2.2 3.8-4.3 6-6.2 2.2-2 4.5-3.8 6.9-5.5 2.4-1.7 4.8-3.2 7.1-4.6 3.4-2 6.4-3.9 9.2-6 2.8-2 5.2-4.2 7.2-6.6 2.1-2.4 3.6-5 4.8-7.8 1.1-2.8 1.7-6 1.7-9.5 0-4.4-.8-8.2-2.5-11.5-1.7-3.3-4-6-7-8.2-3-2.2-6.5-3.8-10.5-4.9-4-1.1-8.4-1.6-13-1.6-12.2 0-23.4 3.7-33.4 11.2-1.3.9-1.5 2.1-.6 3.6l6.4 9.8c.6.7 1.2 1.1 1.8 1.1.7 0 1.4-.2 2.1-.7 3.8-2.5 7.5-4.4 11.1-5.5 3.6-1.2 7.2-1.8 10.7-1.8 2.6 0 4.8.3 6.5.8s3.1 1.3 4.1 2.1c1 .8 1.8 1.8 2.2 2.9.5 1.1.7 2.2.7 3.4 0 1.3-.2 2.5-.6 3.6-.4 1.1-1.1 2.3-2 3.4s-2.3 2.4-4.1 3.8c-1.7 1.4-3.9 2.9-6.7 4.6-3.1 2-6.7 4.4-10.8 7.3s-8.1 6.2-11.9 9.9c-4.1 3.9-7.4 7.9-9.7 11.9-2.4 4-3.6 7.8-3.6 11.2 0 5.2 1.1 10 3.3 11.8 2.2 1.7 5.3 2.6 9.5 2.6h55.8c1 0 1.7-.2 2-.6.3-.4.5-1.1.5-2.2v-12.4c0-1.3-.2-2.1-.5-2.4s-.5-.2-1.6-.2zm92.3-28.2c-1.9-3.7-4.4-6.8-7.7-9.2-3.3-2.4-7.1-4.2-11.5-5.3-4.4-1.1-9.1-1.7-14-1.7-1.5 0-3.2.1-5 .2-1.8.1-3.6.4-5.5.6-1.8.3-3.6.6-5.3.9-1.7.3-3.2.7-4.6 1.1 1.4-6.6 4.3-11.7 8.7-15.2 4.4-3.5 10.1-5.3 17.1-5.3 2.3 0 4.7.2 7.1.5 2.4.3 4.6.8 6.7 1.3.7.2 1.4.3 2.1.2.7 0 1.2-.6 1.5-1.8l3.1-11c.5-1.5.5-2.4.1-2.8-.4-.4-.9-.7-1.5-.9-2.9-1-6.2-1.7-9.8-2.2-3.6-.4-7-.6-10.1-.6-8.1 0-15.1 1.4-21 4.1-5.9 2.7-10.8 6.5-14.6 11.3-3.9 4.8-6.7 10.4-8.6 16.9s-2.8 13.5-2.8 21.1c0 6.7.8 12.8 2.5 18.3s4.2 10.1 7.6 14c3.4 3.9 7.6 6.8 12.7 8.9 5.1 2.1 11.1 3.1 18 3.1 4.9 0 9.6-.7 14.1-2s8.5-3.3 12.1-6 6.3-6.1 8.4-10.2c2.1-4.1 3.2-9 3.2-14.6-.2-5.4-1.1-10-3-13.7zm-23.4 24.5c-3.1 2.4-7.1 3.7-11.8 3.7-6 0-10.7-2-14.2-5.9-3.5-4-5.2-9.4-5.2-16.2v-3.2c3.8-1 7.2-1.8 10.3-2.3 3.1-.5 6.4-.8 10-.8 5.2 0 9.2 1.2 11.8 3.7 2.6 2.4 3.9 5.8 3.9 10.2-.1 4.7-1.6 8.3-4.8 10.8z"/><path fill="#E27C3E" d="M276.6 183h46.7c7.7 0 14 6.3 14 14s-6.3 14-14 14h-46.7c-7.7 0-14-6.3-14-14s6.3-14 14-14z"/><path fill="#737373" d="M185.6 271.7c-3.9 0-7 3.1-7 7v23.4c0 3.9 3.1 7 7 7s7-3.1 7-7v-23.4c0-3.8-3.2-7-7-7zm228.8 0c-3.9 0-7 3.1-7 7v23.4c0 3.9 3.1 7 7 7s7-3.1 7-7v-23.4c0-3.8-3.1-7-7-7z"/><path fill="#4B616F" d="M356.4 294c2.6 2.4 3.9 5.8 3.9 10.2 0 4.8-1.6 8.4-4.7 10.9-3.1 2.4-7.1 3.7-11.8 3.7-6 0-10.7-2-14.2-5.9-3.5-4-5.2-9.4-5.2-16.2v-3.2c3.8-1 7.2-1.8 10.3-2.3 2.8-.5 5.8-.7 9.1-.7h-40.3l-.1 2.4c0 6.7.8 12.8 2.5 18.3s4.2 10.1 7.6 14c3.4 3.9 7.6 6.8 12.7 8.9 5.1 2.1 11.1 3.1 18 3.1 4.9 0 9.6-.7 14.1-2s8.5-3.3 12.1-6 6.3-6.1 8.4-10.2c2.1-4.1 3.2-9 3.2-14.6 0-5.3-.9-9.9-2.8-13.6l-.1-.2h-33.7c4.7-.1 8.5 1.1 11 3.4zm-125.5 42.8h55.8c1 0 1.7-.2 2-.6.3-.4.5-1.1.5-2.2v-12.4c0-1.3-.2-2.1-.5-2.4-.3-.3-1-.4-2-.4h-45.2c.9-2.3 2.3-4.6 4.1-6.8 1.8-2.2 3.8-4.3 6-6.2 2.2-2 4.5-3.8 6.9-5.5 2.4-1.7 4.8-3.2 7.1-4.6 3-1.7 5.6-3.5 8.1-5.2H242c-3.6 2.6-7.1 5.6-10.5 8.9-4.1 3.9-7.4 7.9-9.7 11.9-2.4 4-3.6 7.8-3.6 11.2 0 5.2 1.1 10 3.3 11.8 2.1 1.6 5.3 2.5 9.4 2.5z"/><path fill="#D8B442" d="M426.1 435.2H173.9c-7.7 0-14-6.3-14-14v4.7c0 7.7 6.3 14 14 14h252.2c7.7 0 14-6.3 14-14v-4.7c0 7.7-6.2 14-14 14z"/><path fill="#868686" d="M185.6 271.7c-3.9 0-7 3.1-7 7v18.7c0 3.9 3.1 7 7 7s7-3.1 7-7v-18.7c0-3.8-3.2-7-7-7zm228.8 0c-3.9 0-7 3.1-7 7v18.7c0 3.9 3.1 7 7 7s7-3.1 7-7v-18.7c0-3.8-3.1-7-7-7z"/></svg>