<svg xmlns="http://www.w3.org/2000/svg" xmlns:xlink="http://www.w3.org/1999/xlink" width="128" height="128"><path fill="#DF5A48" d="M64 0c35.346 0 64 28.654 64 64 0 35.347-28.654 64-64 64S0 99.348 0 64C0 28.655 28.654 0 64 0z"/><defs><circle id="a" cx="64" cy="64" r="64"/></defs><clipPath id="b"><use xlink:href="#a" overflow="visible"/></clipPath><path clip-path="url(#b)" fill="#45B39C" d="M-4 108l42-51 42 30 38-54 19-33H-4z"/><path fill="#ECF0F0" d="M81.466 88.229l39.522-55.745L116.533 30 78.249 83.998 40.896 57.884l-.398.312.443-.582-3.475-3.461L8.997 91.537l3.473 3.461 25.492-33.471 42.261 30.129 1.243-3.427z"/><path fill="#EFC84A" d="M11 81C4.925 81 0 85.926 0 92c0 6.076 4.925 11 11 11s11-4.924 11-11c0-6.074-4.925-11-11-11zm28-33c-6.075 0-11 4.925-11 11 0 6.076 4.925 11 11 11s11-4.924 11-11c0-6.075-4.925-11-11-11zm40 26c-6.075 0-11 4.926-11 11 0 6.076 4.925 11 11 11s11-4.924 11-11c0-6.074-4.925-11-11-11zm38-52c-6.075 0-11 4.925-11 11s4.925 11 11 11 11-4.925 11-11-4.925-11-11-11z"/></svg>