<svg xmlns="http://www.w3.org/2000/svg" width="100" height="100" viewBox="0 0 100 100"><path fill="#EFC75E" d="M50 0c27.614 0 50 22.385 50 50 0 27.613-22.386 50-50 50S0 77.613 0 50C0 22.385 22.386 0 50 0z"/><path fill="#E37948" d="M53 58.424c0-9.628-9.626-17.435-21.5-17.435S10 48.795 10 58.424c0 9.629 9.626 17.434 21.5 17.434 1.044 0 2.062-.08 3.066-.197 4.466 3.479 8.967 4.334 9.027 4.229-1.569-1.617-2.524-3.668-3.113-5.639C47.864 71.49 53 65.451 53 58.424z"/><path fill="#F1BCA4" d="M24.5 56a2.5 2.5 0 1 0 0 5 2.5 2.5 0 0 0 0-5zm8 0a2.5 2.5 0 1 0 0 5 2.5 2.5 0 0 0 0-5z"/><path fill="#CC6D41" d="M53 58.424c0-8.081-6.79-14.859-15.989-16.835l-.011.33c0 9.232 5.963 17.324 14.93 21.916A14.408 14.408 0 0 0 53 58.424z"/><path fill="#D17042" d="M13 58.322c0-7.391 5.146-13.745 12.544-16.641C16.57 43.778 10 50.473 10 58.424c0 8.367 7.271 15.35 16.965 17.037C18.813 72.857 13 66.178 13 58.322z"/><path fill="#26A6D1" d="M87.947 17.443C83.252 15.25 77.809 13.989 72 13.989c-17.673 0-32 11.609-32 25.929 0 10.452 7.638 19.454 18.635 23.555-.877 2.925-2.305 5.968-4.635 8.367.09.154 6.769-1.115 13.404-6.266 1.502.176 3.035.27 4.596.27 11.999 0 22.449-5.354 27.926-13.27.048-.887.074-1.779.074-2.679 0-12.397-4.546-23.728-12.053-32.452z"/><path fill="#fff" d="M58 36a4.001 4.001 0 1 0 .002 8.002A4.001 4.001 0 0 0 58 36zm14 0a4.001 4.001 0 1 0 .002 8.002A4.001 4.001 0 0 0 72 36zm14 0a4.001 4.001 0 1 0 .002 8.002A4.001 4.001 0 0 0 86 36z"/><path fill="#2295BC" d="M57 70.84c2.33-2.398 3.758-5.441 4.635-8.367C50.638 58.371 43 49.37 43 38.917c0-10.357 7.498-19.293 18.333-23.447C48.906 19.031 40 28.629 40 39.917c0 10.452 7.638 19.454 18.635 23.555-.877 2.926-2.305 5.969-4.635 8.368.048.082 1.938-.24 4.68-1.312-1.028.273-1.653.359-1.68.312z"/><path d="M58 44c-2.209 0-4-1.789-4-4 0-.85.269-1.634.721-2.282A3.996 3.996 0 0 0 57 45a3.99 3.99 0 0 0 3.281-1.72A3.966 3.966 0 0 1 58 44zm14 0c-2.209 0-4-1.789-4-4 0-.85.269-1.634.721-2.282A3.996 3.996 0 0 0 71 45a3.99 3.99 0 0 0 3.281-1.72A3.966 3.966 0 0 1 72 44zm14 0c-2.209 0-4-1.789-4-4 0-.85.269-1.634.721-2.282A3.996 3.996 0 0 0 85 45a3.99 3.99 0 0 0 3.281-1.72A3.966 3.966 0 0 1 86 44z" fill="#2295BC"/></svg>