<svg xmlns="http://www.w3.org/2000/svg" viewBox="0 0 600 600"><path fill="#27718F" d="M299.5 0C465 0 599.1 134.1 599.1 299.5S465 599 299.6 599 0 465 0 299.5C0 134.1 134.1 0 299.5 0z"/><path fill="#FDC96B" d="M317.5 350c0-57.7-57.7-104.5-128.8-104.5S59.9 292.3 59.9 350s57.7 104.4 128.8 104.4c6.3 0 12.4-.5 18.4-1.2 26.8 20.8 53.7 26 54.1 25.3-9.4-9.7-15.1-22-18.6-33.8 44.2-16.4 74.9-52.6 74.9-94.7z"/><path fill="#FFF" d="M146.8 335.5c-8.3 0-15 6.7-15 15s6.7 15 15 15 15-6.7 15-15-6.7-15-15-15zm47.9 0c-8.3 0-15 6.7-15 15s6.7 15 15 15 15-6.7 15-15-6.7-15-15-15z"/><path fill="#FFB819" d="M317.5 350c0-48.4-40.7-89-95.8-100.9l-.1 2c0 55.3 35.7 103.8 89.4 131.3 4.2-10.2 6.5-21 6.5-32.4zm-239.6-.6c0-44.3 30.8-82.3 75.2-99.7-53.8 12.6-93.2 52.7-93.2 100.3 0 50.1 43.6 92 101.6 102.1-48.8-15.6-83.6-55.6-83.6-102.7z"/><path fill="#27A6D1" d="M526.9 104.5c-28.1-13.1-60.7-20.7-95.5-20.7-105.9 0-191.7 69.5-191.7 155.3 0 62.6 45.8 116.5 111.6 141.1-5.3 17.5-13.8 35.8-27.8 50.1.5.9 40.6-6.7 80.3-37.5 9 1.1 18.2 1.6 27.5 1.6 71.9 0 134.5-32.1 167.3-79.5.3-5.3.4-10.7.4-16 .1-74.3-27.1-142.1-72.1-194.4z"/><path fill="#FFF" d="M347.5 215.7c-13.2 0-24 10.7-24 24 0 13.2 10.7 24 24 24s24-10.7 24-24c-.1-13.3-10.8-24-24-24zm83.9 0c-13.2 0-24 10.7-24 24 0 13.2 10.7 24 24 24s24-10.7 24-24c-.1-13.3-10.8-24-24-24zm83.8 0c-13.2 0-24 10.7-24 24 0 13.2 10.7 24 24 24s24-10.7 24-24-10.7-24-24-24z"/><path fill="#2395BC" d="M341.5 424.4c14-14.4 22.5-32.6 27.8-50.1-65.9-24.6-111.6-78.5-111.6-141.1 0-62 44.9-115.6 109.8-140.5C293 114 239.6 171.5 239.6 239.1c0 62.6 45.8 116.5 111.6 141.1-5.3 17.5-13.8 35.8-27.8 50.1.3.5 11.6-1.4 28-7.9-6 1.8-9.8 2.3-9.9 2z"/><path fill="#2395BC" d="M347.5 263.6c-13.2 0-24-10.7-24-24 0-5.1 1.6-9.8 4.3-13.7-6.2 4.3-10.3 11.5-10.3 19.7 0 13.2 10.7 24 24 24 8.1 0 15.3-4.1 19.7-10.3-3.9 2.7-8.6 4.3-13.7 4.3zm83.9 0c-13.2 0-24-10.7-24-24 0-5.1 1.6-9.8 4.3-13.7-6.2 4.3-10.3 11.5-10.3 19.7 0 13.2 10.7 24 24 24 8.1 0 15.3-4.1 19.7-10.3-4 2.7-8.7 4.3-13.7 4.3zm83.8 0c-13.2 0-24-10.7-24-24 0-5.1 1.6-9.8 4.3-13.7-6.2 4.3-10.3 11.5-10.3 19.7 0 13.2 10.7 24 24 24 8.1 0 15.3-4.1 19.7-10.3-3.9 2.7-8.6 4.3-13.7 4.3z"/></svg>