<svg xmlns="http://www.w3.org/2000/svg" width="128" height="128"><path fill="#EBEEEE" d="M64 0c35.346 0 64 28.654 64 64 0 35.346-28.654 64-64 64-35.346 0-64-28.654-64-64C0 28.654 28.654 0 64 0z"/><path fill="#334D5D" d="M104 42v48a3 3 0 0 1-3 3H27a3 3 0 0 1-3-3V42c-.018-.002 79.98.008 80 0z"/><path fill="#fff" d="M104 44v-6a3 3 0 0 0-3-3H27a3 3 0 0 0-3 3v6c-.018.002 79.98-.008 80 0zm-80 1h80v9H24v-9z"/><path fill="#74848F" d="M34 63v2h60v-2H34zm0 11h18v7H34v2h60v-2H76v-7h18v-2H34v2zm20 0h20v7H54v-7z"/><path fill="#74848F" d="M34 63v2h60v-2H34zm0 11h18v7H34v2h60v-2H76v-7h18v-2H34v2zm20 0h20v7H54v-7z"/><path d="M32.929 54h14.142l9-9H41.929zm47.142-9H65.929l-9 9h14.142zM24 53.072L32.071 45H24zm80-8V45H89.929l-8.999 9h14.141zm0-1.123L95.036 35H80.902l9.013 8.997c8.367 0 14.079.001 14.085.003v-.051zm-79.525-7.557A2.978 2.978 0 0 0 24 38v6h8.097l-7.622-7.608zM71.051 35H56.918l9.013 8.998 14.133-.001L71.051 35zm-29.103 9l14.132-.001L47.066 35H32.933l9.015 9z" fill="#203D4D"/></svg>