<svg xmlns="http://www.w3.org/2000/svg" width="100" height="100" viewBox="0 0 100 100"><path fill="#AAE1F3" d="M50 0c27.614 0 50 22.386 50 50s-22.386 50-50 50S0 77.613 0 50C0 22.385 22.386 0 50 0z"/><path fill="#F2F3F3" d="M33 36h34l-5 44H38l-5-44z"/><path fill="#CECFCF" d="M33 36l5 44h3l-5-44z"/><path fill="#3DB39E" d="M32 46h36l-2.75 22h-30.5L32 46z"/><path fill="#EAEEEE" d="M50 50a7 7 0 1 0 .001 14.001A7 7 0 0 0 50 50zm3.456 10.111c-.622-.346-1.444-.596-2.375-.709l.05-.373A2.321 2.321 0 0 0 52.334 57a2.334 2.334 0 0 0-4.667 0c0 .877.488 1.631 1.203 2.029l.049.373c-.931.113-1.752.363-2.374.709A4.629 4.629 0 0 1 45.334 57a4.667 4.667 0 0 1 9.333 0 4.629 4.629 0 0 1-1.211 3.111z"/><path fill="#41545F" d="M38 22h24c1.104 0 1.487.997 2 2l2 4a2 2 0 0 1-2 2H36a2 2 0 0 1-2-2l2-4c.504-.957.896-2 2-2z"/><path fill="#2B414D" d="M31 28h38a2 2 0 0 1 2 2v4a2 2 0 0 1-2 2H31a2 2 0 0 1-2-2v-4a2 2 0 0 1 2-2z"/><path fill="#324D5B" d="M10 80c9.122 12.143 23.643 20 40 20s30.879-7.857 40.001-20H10z"/><path fill="#D6DADC" d="M63.363 68H36.636l.228 2h26.273z"/><path fill="#37A18E" d="M32 46l2.75 22h3L35 46z"/><path fill="#B6BABB" d="M39.636 68h-3l.114 1 .114 1h3z"/><path fill="#fff" d="M41.02.819C40.514 2.539 40 4.816 40 6.992c0 2.719 5 6.676 5 9.082C45 18.922 43 22 43 22h1s3-3.127 3-6.026c0-2.368-3-6.25-3-8.912 0-2.504 1.341-5.143 2.471-6.924a50.067 50.067 0 0 0-5.451.681z"/></svg>