<svg xmlns="http://www.w3.org/2000/svg" viewBox="0 0 616.8 514.4"><path fill="#A9DBD3" d="M571.7 215.5l15.3 5-10.6-19.3zM122.2 83.2l22.4-7-11.2 15.3zm22.4-66.9l15.8-4.4-7.9 12zm-106.4 89l11.4-6-2.7 8.7zm131.9 6.4l17.4-4.9-5.4 9.3zm343.3 165.6h17.4l-14.7 19.1zM437.7 88.9l2.3-4.4 13.2 8.5v4.6zM11 148.4l2.9 4.5 16.9-11.5-5-3.3zM437.3 38.3h6.6l-13.1 21-4.3-4.5zm41.4 24h13.1l-6.5 7.6zM455 6l4.4-6 15.8 10.4-4.4 7.6zM352.998 93l2.14-5.604 24.289 9.271-2.14 5.605zM474.7 117.9l-7.4 1.9 4.1 17.3 8.8-3.8zm34.7-15.2l8.7-3.3 8.7 21.8-6 2.7zm36.5-14.6l3.8 6.6 24-15.8-2.2-6.6zm-11.7 31l4.9-4.4 12 7.1-6 4.9zm-19.5-98l7-4.6 13.1 26.4-10.1 6.5zM66.4 70.5l3.2 4.6 20.2-9.3-3.8-7.1zm527 403l3.2 4.6 20.2-9.3-3.8-7.1zm-59-173l3.2 4.6 20.2-9.3-3.8-7.1zM222.2 113.1l13.4 12-4.8 3.8-8.6-11.4zM95 33.7l5.6-6.4 11.5 11.1-3.2 7.6zm12.5 90.2l7.9-6.5 7.1 16.3-7.1 4.4zm449 319l7.9-6.5 7.1 16.3-7.1 4.4zM39.3 194.8l-1.6 4.1 18.5 10.6 1.1-3.1zm474.9 140.7V353l8.7-7.1zm-37 17.5v4.3l12.7 12.6 3.2-5.5zm4.1 100.4l-3.3 3.8 10.1 18.5s4.1-2.7 4.1-4.4c0-1.6-10.9-17.9-10.9-17.9zm60.9-43.8v13.1l7.7-10.3zM42.7 43.5l9.6 8.9-2.5-12.6zM531.1 489l20.1-24.2v29.4zM413.3 121.8l13.9-16.8v20.4zm43.2 349.7l3 7.8-21.3 12.7v-7.7zm132.7-425v15.3l8.2-7.6zm-185 441.4v19.6l10.9-3.3zm-229-21v18l10-3zm45.3 15.9l-9.1-3.3-7.8 19.6 6.8.4zm374.2-167.3l-7.4 4.2 7.2 4.9zM162.2 489.8l-8 3 11.5 21.6 6-3.6zm-113.9 2.4l-2.7 9.3L67 512.9l.4-10.3zm517-162l-2.7 9.3 21.4 11.4.4-10.3zM92.2 490.8v6.5l25-12.5-4.6-7.1zm494.9-300l2.2 6.2 19.3-20.2-6.8-5.2zM56.7 459.2l3.8 14.2 6.5-6.8zm418 34l3.8 14.2 6.5-6.8zM229 53.4l-18.5 8.4 10.8 7.4zM67.2 422.7v6.6h19.4l.7-3.3zm-50.3 3.6l-7.1 20h7.1l4.3-17.3zm35.7-45.9l-16.1 16.9h19.6zM77.1 353s-6.3.5-5.7 2.7 8.2 26.1 8.2 26.1l7.6-6L77.1 353zM67 324.6l10.1 2.2-15.3 17.5-5.1-3.3zm-40.8 19.7h19v6h-19zM3.8 409.6l11.7 3.3-9 13.1-6.5-3.3zm17-131.7l5.7 1-5.3 20.4h-6.5zm39.6-142.8l4.6 2.1-2.3 9.5-6.5-4.8zm499 31l4.6 2.1-2.3 9.5-6.5-4.8z"/></svg>