<svg xmlns="http://www.w3.org/2000/svg" width="100" height="100" viewBox="0 0 100 100"><circle fill="#CCD0D2" cx="50" cy="50" r="50"/><path fill="#3B5665" d="M6.705 74.999C15.351 89.94 31.496 100 50 100s34.648-10.06 43.295-25.001H6.705z"/><path fill="#CCD0D2" d="M42 69.999h17v8H42v-8z"/><path fill="#E4E7E7" d="M40 77.999h21a2 2 0 0 1 0 4H40a2 2 0 0 1 0-4z"/><path fill="#36434F" d="M19 22.999h62c1.656 0 3 1.344 3 3v41a3 3 0 0 1-3 3H19a3 3 0 0 1-3-3v-41a3 3 0 0 1 3-3z"/><path fill="#596875" d="M19 25.999h62v34H19v-34z"/><path fill="#E4E7E7" d="M43 35.001h14c.553 0 1 .446 1 1v14.998a1 1 0 0 1-1 1.002H43a1 1 0 0 1-1-1.002V36.001a1 1 0 0 1 1-1z"/><path fill="#fff" d="M46 47h8v2h-8v-2z"/><path fill="#C2C5C5" d="M50 38a3.001 3.001 0 0 1 0 6 3 3 0 0 1 0-6z"/><path fill="#E4E7E7" d="M16 62.999v4a3 3 0 0 0 3 3h62a3 3 0 0 0 3-3v-4H16z"/><path fill="#B7BBBD" d="M42 69.999h17v3H42z"/></svg>