<svg xmlns="http://www.w3.org/2000/svg" viewBox="0 0 600 600"><path fill="#FDC96B" d="M299.7 1.1c165.3 0 299.2 134 299.2 299.2 0 165.3-134 299.2-299.2 299.2S.5 465.5.5 300.3C.5 135 134.5 1.1 299.7 1.1z"/><path fill="#2B424F" d="M243.4 482.6H356v4.6H243.4v-4.6z"/><path fill="#ECF0F0" d="M480.8 150.8H118.7c-11 0-19.9 8.9-19.9 19.9v235.8c0 11 8.9 19.9 19.9 19.9h143.5c-1.7 33.1-4.9 40.3-4.9 40.3s-5.8 13.9-13.7 13.9c.2 0 0 2 0 2H356s-.2-2 0-2c-7.6 0-13.1-13.9-13.1-13.9s-3.8-7.2-5.5-40.3h140.8c11 0 22.5-8.9 22.5-19.9V170.7c0-10.9-8.9-19.9-19.9-19.9z"/><linearGradient id="a" gradientUnits="userSpaceOnUse" x1="299.719" y1="119.398" x2="299.719" y2="175.605" gradientTransform="matrix(1 0 0 -1 0 602)"><stop offset="0" stop-color="#fff" stop-opacity="0"/><stop offset="1" stop-color="#010101" stop-opacity=".5"/></linearGradient><path fill="url(#a)" d="M342.8 466.7s-3.8-7.2-5.5-40.3h-75.1c-1.7 33.1-4.9 40.3-4.9 40.3s-5.8 13.9-13.7 13.9c.2 0 0 2 0 2H356s-.2-2 0-2c-7.7 0-13.2-13.9-13.2-13.9z"/><path fill="#2B424F" d="M480.8 150.7H118.6c-11 0-19.9 8.9-19.9 19.9v199.8s401.8-.1 402.1 0V170.6c-.1-11-9-19.9-20-19.9zM299.6 384.4c-7.7 0-14 6.2-14 14s6.3 14 14 14 14-6.2 14-14-6.2-14-14-14z"/><path fill="#3C5867" d="M477.4 173.9V347c-.8 0-355.2.2-355.3 0V173.9h355.3z"/></svg>