<svg xmlns="http://www.w3.org/2000/svg" viewBox="0 0 600 600"><path fill="#324D5B" d="M300 .2c165.4 0 299.5 134.1 299.5 299.5S465.4 599.2 300 599.2.5 465.1.5 299.7 134.6.2 300 .2z"/><path fill="#E2574C" d="M300 599.2c-72.9 0-139.7-26.1-191.7-69.4V325.6c0-3.3 2.4-5.9 5.5-6.6 30.5-6.9 54.4-70.7 54.4-148.4 0-2.4 0-4.8-.1-7.1-.1-3.5 2.5-6.6 6-7l50-6.2c2.1-.3 4.1.5 5.6 2 15 14.6 40.8 27.9 70.2 27.9s55.2-13.3 70.2-27.9c1.5-1.5 3.6-2.2 5.6-2l50.2 6.2c3.4.4 5.9 3.4 5.9 6.8 0 2.4-.1 4.9-.1 7.3 0 77.6 23.9 141.4 54.3 148.4 3.2.7 5.5 3.4 5.5 6.7v204.2c-51.8 43.2-118.6 69.3-191.5 69.3z"/><path fill="#C74B41" d="M377.9 167.9c0-6-.5-11.9-1.2-17.6l-.8-.1c-2.1-.3-4.1.5-5.6 2-15 14.7-40.8 27.9-70.2 27.9s-55.2-13.3-70.2-27.9c-1.5-1.5-3.5-2.2-5.6-2l-.8.1c-.8 5.7-1.2 11.6-1.2 17.6 0 56.2 34.9 101.8 77.9 101.8s77.7-45.5 77.7-101.8z"/><path fill="#D9D9D9" d="M377.5 150.4l-1.7-.2c-2.1-.3-4.1.5-5.6 2-15 14.7-40.8 27.9-70.2 27.9s-55.2-13.3-70.2-27.9c-1.5-1.5-3.5-2.2-5.6-2l-2.1.3c4.7 26.7 37.6 47.4 77.7 47.4s73.1-20.8 77.7-47.5z"/><path fill="#EC9089" d="M371.9 305.7h35.9c3.3 0 6 2.7 6 6v12c0 3.3-2.7 6-6 6h-35.9c-3.3 0-6-2.7-6-6v-12c0-3.3 2.7-6 6-6z"/><path fill="#FCEFED" d="M286.2 460.8h-38.7c-1.2 0-1.2-1-.6-1.6 7-6.9 16.2-12.9 24.4-19.4 11.2-8.9 20.6-18.2 20.6-33.1 0-20.1-16.2-29.3-35.8-29.3-16.5 0-31.5 9.3-32.7 27 0 4.9 2.5 6.9 7.3 7.4 4.7.6 9.3-1 10.5-5.9 1.9-7.9 7.6-11.9 14.9-11.9 10.2 0 16.2 5.4 16.2 14.8 0 8.5-8.6 16.3-16.9 22.5-10.2 7.6-19.7 14.7-28.3 24.3-2 2.4-4.8 7.2-4.8 12.8 0 8.3 2.2 10.7 9.8 10.7h54.2c4.8 0 6.1-4.2 6.1-8.5-.1-4-1.4-9.8-6.2-9.8zm62.8-45.6c-1-.1-1.3-1.1-.7-1.7l19-18.5c2.2-2.1 3.8-4.4 3.9-7.6.3-4.8-.9-10-5.7-10h-50.4c-4.8 0-6.1 5.7-6.1 10 0 4.2 1.2 8.5 6.1 8.5h29.5c-2.2 1.7-3.8 3.3-5.7 5.2l-12.6 12.7c-2.6 2.7-3.5 6.1-1.9 9.8 1.3 3.4 4.1 5.4 7.6 5.4 12.6 0 26.4 2.1 26.4 18 0 9.2-6.6 16.4-16.8 16.4-8.5 0-13.6-3-17.2-10.2-2.3-4.4-7-4.9-11.7-3.1-5.1 2-7 6.5-4.7 11.3 6 12.7 18.8 18.1 33.2 18.1 21 0 36.5-13.4 36.7-34.1.1-16.7-11.5-28.5-28.9-30.2z"/><path fill="#CB4E44" d="M486.1 318.9c-8.8-2-17.1-8.9-24.4-19.5v252.3c10.4-6.7 20.4-14 29.9-22V325.6c.1-3.3-2.3-5.9-5.5-6.7zm-347.8-19.4C131 310 122.7 317 113.9 319c-3.2.7-5.5 3.4-5.5 6.6v204.2c9.5 7.9 19.5 15.3 29.9 22V299.5z"/><path fill="#FFFCFC" d="M370.2 152.2l-.3.2c.6 5.1 1 10.2 1 15.5 0 52.8-31.8 95.8-71 95.8s-71-43-71-95.8c0-5.3.4-10.5 1-15.5l-.3-.2c-1.5-1.5-3.5-2.2-5.6-2l-6.9.9c-.7 5.5-1.2 11.1-1.2 16.9 0 59.4 37.6 107.8 83.9 107.8s83.9-48.4 83.9-107.8c0-5.7-.5-11.4-1.1-16.9l-6.9-.9c-2-.3-4 .5-5.5 2zm-190 9.7l-.1-6h-2l-3.9.5c-3.4.4-5.8 3.2-5.9 6.6v7.6c0 77.7-23.9 141.4-54.4 148.4-3.2.7-5.5 3.4-5.5 6.6v4c40.2 0 71.8-73.6 71.8-167.7zm305.9 157c-30.5-7-54.3-70.7-54.3-148.4v-7.7c-.1-3.3-2.5-6-5.8-6.4l-4.1-.5h-2l-.1 6c0 94 31.6 167.7 71.9 167.7v-4c0-3.3-2.4-5.9-5.6-6.7z"/><path fill="#D9D9D9" d="M138.3 299.5C131 310 122.7 317 113.9 319c-3.2.7-5.5 3.4-5.5 6.6v4c10.8 0 20.9-5.3 29.9-14.8v-15.3zm347.8 19.4c-8.8-2-17.1-8.9-24.4-19.5v15.4c9.1 9.5 19.2 14.8 29.9 14.8v-4c.1-3.3-2.3-5.9-5.5-6.7z"/></svg>