<svg xmlns="http://www.w3.org/2000/svg" width="100" height="100" viewBox="0 0 100 100"><path fill="#324D5B" d="M50 0C22.386 0 0 22.386 0 50s22.386 50 50 50 50-22.387 50-50S77.614 0 50 0z"/><path fill="#2B424D" d="M19 82.998v-56L.188 45.811A50.428 50.428 0 0 0 0 50c0 12.649 4.707 24.192 12.452 32.999H19z"/><path fill="#DA9C44" d="M89 81.272V57L49.975 38 11 57v24.272C20.164 92.687 34.224 100 50 100c15.775 0 29.836-7.313 39-18.728z"/><path fill="#F3F3F3" d="M19 27h63a2 2 0 0 1 2 2v46a2 2 0 0 1-2 2H19a2 2 0 0 1-2-2V29a2 2 0 0 1 2-2z"/><path fill="#26A6D1" d="M38 32h7l4-5h-7l-4 5zm30-5l-4 5h7l4-5h-7zm-51 2v3h3l4-5h-5a2 2 0 0 0-2 2z"/><path fill="#E2574C" d="M51 32h7l4-5h-7l-4 5zm-26 0h7l4-5h-7l-4 5zm57-5h-1l-4 5h7v-3a2 2 0 0 0-2-2z"/><path fill="#DFE1E2" d="M73.5 47h-17a1.5 1.5 0 1 0 0 3h17a1.5 1.5 0 1 0 0-3zm-3 6h-14a1.5 1.5 0 0 0 0 3h14a1.5 1.5 0 0 0 0-3zm-31.483-4.04l.682 3.585L34 43.999l-8 12c0 1.105 5.148 2 11.5 2s11.5-.895 11.5-2l-7-10-2.983 2.961zM40 43.999a2 2 0 1 0-.001-4.001A2 2 0 0 0 40 43.999zM56.5 44h17a1.5 1.5 0 1 0 0-3h-17a1.5 1.5 0 1 0 0 3z"/><path fill="#F4B459" d="M89 81.272V57L49.975 75.999 11 57v24.272C20.164 92.687 34.224 100 50 100c15.775 0 29.836-7.313 39-18.728z"/><path fill="#F6C37A" d="M89 57L20.591 90.427A49.762 49.762 0 0 0 49.983 100h.034C65.786 99.994 79.84 92.682 89 81.272V57z"/></svg>