<svg xmlns="http://www.w3.org/2000/svg" xmlns:xlink="http://www.w3.org/1999/xlink" width="128" height="128"><path fill="#E27C3F" d="M64 0c35.346 0 64 28.654 64 64 0 35.347-28.653 64-64 64S0 99.347 0 64C0 28.654 28.654 0 64 0z"/><path fill="#EFC84A" d="M34 51h60a3 3 0 0 1 3 3v44a3 3 0 0 1-3 3H34a3 3 0 0 1-3-3V54c0-1.656 1.344-3 3-3z"/><path fill="#D7B442" d="M34 50h60a3 3 0 0 1 3 3v4a3 3 0 0 1-3 3H34a3 3 0 0 1-3-3v-4c0-1.656 1.344-3 3-3z"/><path fill="#796320" d="M43.084 52C40.046 52 37 53.344 37 55s3.046 3 6.083 3S49 56.657 49 55s-2.878-3-5.916-3zm42 0C82.047 52 79 53.344 79 55s3.047 3 6.084 3S91 56.657 91 55s-2.879-3-5.916-3z"/><path fill="#fff" d="M64 22c-13.807 0-25 11.249-25 25.125v7.836h.239C39.822 55.562 41.445 56 43 56c1.555 0 3.177-.437 3.76-1.038H47v-6.837C47 37.562 54.06 30 64 30s17 7.562 17 18.125v6.843h.242c.58.599 2.178 1.032 3.727 1.032s3.186-.433 3.781-1.031H89v-7.844C89 33.249 77.807 22 64 22z"/><path fill="#553E00" d="M68 77.118c0-2.274-1.791-4.117-4-4.117s-4 1.843-4 4.117c0 1.489.775 2.782 1.926 3.505L60.801 87h6.4l-1.127-6.377A4.127 4.127 0 0 0 68 77.118z"/><defs><path id="a" d="M64 22c-13.807 0-25 11.249-25 25.125v7.836h.239C39.822 55.562 41.445 56 43 56c1.555 0 3.177-.437 3.76-1.038H47v-6.837C47 37.562 54.06 30 64 30s17 7.562 17 18.125v6.843h.242c.58.599 2.178 1.032 3.727 1.032s3.186-.433 3.781-1.031H89v-7.844C89 33.249 77.807 22 64 22z"/></defs><clipPath id="b"><use xlink:href="#a" overflow="visible"/></clipPath><path clip-path="url(#b)" fill="#E6E6E6" d="M64 26c11.598 0 21 9.906 21 22.125v14.75C85 75.095 75.599 85 64 85c-11.598 0-21-9.905-21-22.125v-14.75C43 35.906 52.403 26 64 26z"/><path fill="#F2D067" d="M94 60H34a3 3 0 0 1-3-3v1a3 3 0 0 0 3 3h60a3 3 0 0 0 3-3v-1a3 3 0 0 1-3 3z"/></svg>