<svg xmlns="http://www.w3.org/2000/svg" viewBox="0 0 663 290.7"><linearGradient id="a" gradientUnits="userSpaceOnUse" x1="357.35" y1="94.78" x2="663" y2="94.78"><stop offset="0" stop-color="#ffb819" stop-opacity=".3"/><stop offset=".179" stop-color="#9c7f25" stop-opacity=".196"/><stop offset=".344" stop-color="#494f30" stop-opacity=".1"/><stop offset=".46" stop-color="#153137" stop-opacity=".033"/><stop offset=".516" stop-color="#012639" stop-opacity="0"/></linearGradient><path fill="url(#a)" d="M361 93.4L663 0v189.6L357.3 120z"/><linearGradient id="b" gradientUnits="userSpaceOnUse" x1="-13693.389" y1="94.78" x2="-13387.65" y2="94.78" gradientTransform="matrix(-1 0 0 1 -13387.65 0)"><stop offset="0" stop-color="#ffb819" stop-opacity=".3"/><stop offset=".179" stop-color="#9c7f25" stop-opacity=".196"/><stop offset=".344" stop-color="#494f30" stop-opacity=".1"/><stop offset=".46" stop-color="#153137" stop-opacity=".033"/><stop offset=".516" stop-color="#012639" stop-opacity="0"/></linearGradient><path fill="url(#b)" d="M302.2 93.4L0 0v189.6L305.7 120z"/><path fill="#EFEFEF" d="M374.6 287.7l-10.3-147.1h-67.1l-10.3 147.1-.2 4.4v.6c13.9 4.4 28.7 6.7 44.1 6.7 15.4 0 30.2-2.4 44.1-6.7l-.3-5z"/><path fill="#DEDEDE" d="M296.4 152.4h68.8l-.4-5.9h-67.9l-.5 5.9z"/><path fill="#FECC6C" d="M298.5 90.6h64.7v44.1h-64.7V90.6z"/><path fill="#EFEFEF" d="M330.9 61.2l26.5 23.5h-52.9l26.4-23.5z"/><path fill="#D7D7D7" d="M298.6 295.9l10.9-155.3h-12.3l-10.3 147.1-.2 4.4v.6c3.9 1.2 7.9 2.3 11.9 3.2z"/><path fill="#C8C8C8" d="M296.4 152.4h12.3l.4-5.9h-12.3l-.4 5.9z"/><path fill="#F4F4F4" d="M350.8 140.6l11 155.6c4.5-1 8.9-2.1 13.2-3.5l-.4-5-10.3-147.1h-13.5z"/><path fill="#E0E0E0" d="M351.6 152.4h13.5l-.4-5.9h-13.5l.4 5.9z"/><path fill="#F1C266" d="M298.5 90.6h32.4v44.1h-32.4V90.6z"/><path fill="#EFEFEF" d="M366.2 134.7h-2.9V120h5.9c1.6 0 2.9-1.3 2.9-2.9 0-1.6-1.3-2.9-2.9-2.9h-76.5c-1.6 0-2.9 1.3-2.9 2.9 0 1.6 1.3 2.9 2.9 2.9h5.9v14.7h-2.9c-3.2 0-5.9 2.6-5.9 5.9 0 3.3 2.6 5.9 5.9 5.9h70.6c3.2 0 5.9-2.6 5.9-5.9-.1-3.2-2.8-5.9-6-5.9zm-61.8 0V120h5.9v14.7h-5.9zm11.8 0V120h5.9v14.7h-5.9zm11.7 0V120h5.9v14.7h-5.9zm11.8 0V120h5.9v14.7h-5.9zm11.8 0V120h5.9v14.7h-5.9zm-54.5-50h67.7c2.4 0 4.4 2 4.4 4.4 0 2.4-2 4.4-4.4 4.4H297c-2.4 0-4.4-2-4.4-4.4 0-2.4 2-4.4 4.4-4.4z"/><path fill="#D7D7D7" d="M304.4 89.1c0-2.4 2-4.4 4.4-4.4H297c-2.4 0-4.4 2-4.4 4.4 0 2.4 2 4.4 4.4 4.4h11.8c-2.4 0-4.4-1.9-4.4-4.4z"/><path fill="#E3E3E3" d="M304.4 84.7h26.5V61.2l-26.5 23.5z"/><path fill="#E2574C" d="M292.3 211.2l-1.4 20.6h79.9l-1.4-20.6h-77.1zm2.8-41.2l-1.4 20.6h74.1l-1.4-20.6h-71.3zm78.5 103l-1.4-20.6h-82.7l-1.4 20.6h85.5z"/><path fill="#CB4E44" d="M295.1 170l-1.4 20.6H306l1.5-20.6h-12.4zm-2.8 41.2l-1.4 20.6h12.2l1.5-20.6h-12.3zm7.9 61.8l1.5-20.6h-12.2l-1.4 20.6h12.1z"/><path fill="#E5685E" d="M352.9 170l1.5 20.6h13.5l-1.4-20.6h-13.6zm2.9 41.2l1.5 20.6h13.5l-1.4-20.6h-13.6zm17.8 61.8l-1.4-20.6h-13.5l1.5 20.6h13.4z"/></svg>