<svg xmlns="http://www.w3.org/2000/svg" viewBox="0 0 600 600"><circle fill="#447F9A" cx="300.4" cy="300.4" r="300.1"/><path fill="#FFF" d="M140.7 177.5h325c12.8 0 23.2 10.4 23.2 23.2v208.9c0 12.8-10.4 23.2-23.2 23.2h-325c-12.8 0-23.2-10.4-23.2-23.2V200.7c0-12.8 10.4-23.2 23.2-23.2z"/><path fill="#CCD0D1" d="M314.8 258.7v23.2h116.1v-23.2H314.8zm0 69.7h116.1v-23.2H314.8v23.2zm0 46.4h116.1v-23.2H314.8v23.2z"/><path fill="#858485" d="M213.4 259s14.1-.2 27.4-.2l15.7 22.4s.2 23.4.2 29.2-11.5 17.2-11.5 17.2v11.8l34.8 13.9v21.6H175.4l.1-22 34.9-13.4V328s-11.6-10.4-11.6-17.6v-29.2c0-.1 1-22.2 14.6-22.2z"/><path fill="#CCD0D1" d="M465.7 177.5h-325c-12.8 0-23.2 10.4-23.2 23.2v11.6h371.4v-11.6c0-12.8-10.4-23.2-23.2-23.2z"/></svg>