<svg xmlns="http://www.w3.org/2000/svg" viewBox="0 0 175 175"><path fill="#CCC" d="M.2 24.2h174.5v125.7H.2z"/><path fill="#E6E6E6" d="M.2 43.3h174.5v107.5H.2z"/><path fill="#B3B3B3" d="M62.9 87.5c1 .7.8 1.9.5 3-.3 1.3-.6 2.6-1.1 3.9-.2.5-.7 1-1.1 1.4 0 .2-.2.4-.2.7-.2.8-.4 1.6-.5 2.4-.3 1.7-1 3.3-1.8 4.8-.2.4-.4.9-.4 1.4v5.2c0 .8.4 1.3 1 1.6 1.8 1 3.7 1.2 5.7 1.5 4 .6 7.6 1.9 10.7 4.5 1.6 1.4 2.6 3.1 2.7 5.3H23.6c-.2-1 .2-1.9.6-2.7.9-1.9 2.4-3.1 4.2-4.2 2.9-1.8 6.2-2.6 9.5-3.1 1.6-.3 3.2-.8 4.7-1.3.7-.2 1-.8 1-1.6v-5.6c0-.3-.1-.6-.2-.8-1.4-2.1-2-4.5-2.3-6.9-.1-.6-.1-1.2-.9-1.5-.3-.1-.5-.5-.6-.9-.5-1.7-1-3.4-1.3-5.1-.2-.8 0-1.7.7-2.1-.2-2.5-.6-4.9-.7-7.2-.2-4.6 2.4-8.7 6.8-10.5 4.3-1.7 8.6-1.7 12.7.5 3.7 2 5.8 5.2 5.8 9.5 0 2.5-.4 5.1-.7 7.8m34.5-15.9H150v9.5H97.4zm0 19.6H150v9.5H97.4zm0 20.6H150v9.5H97.4z"/></svg>