<svg xmlns="http://www.w3.org/2000/svg" xmlns:xlink="http://www.w3.org/1999/xlink" width="128" height="128"><path fill="#334D5D" d="M64 0c35.346 0 64 28.654 64 64 0 35.347-28.654 64-64 64-35.346 0-64-28.653-64-64C0 28.654 28.654 0 64 0z"/><defs><path id="a" d="M64 0c35.346 0 64 28.654 64 64 0 35.347-28.654 64-64 64-35.346 0-64-28.653-64-64C0 28.654 28.654 0 64 0z"/></defs><clipPath id="b"><use xlink:href="#a" overflow="visible"/></clipPath><g clip-path="url(#b)"><path fill="#2F4857" d="M8.129 100.789A19.242 19.242 0 0 0 8 103c0 6.976 3.633 13.42 9.544 17.049.497 2.667 1.322 5.356 2.416 7.951h11.074l-.035-.5c0-6.893 7.626-12.5 17-12.5 6.209 0 11.499 1.926 14.512 5.282L64 121.94l1.488-1.658C68.502 116.926 73.791 115 80 115c9.374 0 17 5.607 17 12.5l-.035.5h11.191c1.039-2.603 1.827-5.291 2.31-7.958A20.01 20.01 0 0 0 120 103c0-.729-.043-1.468-.129-2.211C126.186 99.663 131 94.126 131 87.5c0-7.444-6.057-13.5-13.5-13.5-6.008 0-11.199 3.971-12.902 9.548-3.277-.787-6.649-.731-10.044.233l-2.02.574.671 1.989c1.666 4.936 1.611 8.314.857 9.365-.121.169-.281.333-.777.334l-.311-.021c-1.102-.131-2.244-.616-3.69-1.229-2.728-1.157-6.12-2.598-11.63-2.758l-1.045-.03-.621.84c-.816 1.104-2.259 2.308-6.764 2.855l-3.554.433 2.231 2.799c.326.41.548.858.658 1.331l.08.224-.018.16.026.36c0 3.277-3.196 8.992-5.028 8.992-1.833 0-5.028-5.715-5.024-9.042l.02-.317-.012-.116.07-.25c.1-.469.302-.911.6-1.316l2.079-2.821-3.486-.354c-4.746-.483-6.092-1.647-6.84-2.833l-.616-.977-1.152.044c-5.371.205-8.718 1.613-11.408 2.744-1.462.614-2.617 1.1-3.735 1.231l-.319.021c-.521 0-.687-.173-.812-.35-.768-1.08-.799-4.525.945-9.539l.731-2.104-2.169-.502a19.733 19.733 0 0 0-9.091.029C21.699 77.971 16.507 74 10.5 74 3.056 74-3 80.056-3 87.5c0 6.626 4.814 12.163 11.129 13.289z"/><path fill="#4D6471" d="M10.462 98.998A18.018 18.018 0 0 0 10 103c0 6.809 3.782 12.731 9.357 15.789.479 3.043 1.435 6.194 2.778 9.211h6.897l-.033-.5c0-7.995 8.523-14.5 19-14.5 6.825 0 12.656 2.221 16 5.946 3.344-3.726 9.176-5.946 16-5.946 10.477 0 19 6.505 19 14.5l-.033.5h7.004c1.291-3.049 2.213-6.201 2.678-9.214C114.22 115.726 118 109.807 118 103c0-1.377-.169-2.713-.462-4.002C123.871 98.978 129 93.839 129 87.5c0-6.351-5.148-11.5-11.5-11.5-5.869 0-10.703 4.401-11.403 10.082A17.94 17.94 0 0 0 100 85c-1.703 0-3.34.262-4.899.705 2.321 6.88 2.152 12.842-2.362 12.305-3.721-.443-6.967-3.737-15.143-3.975-1.348 1.823-3.532 3.092-8.13 3.651a5.34 5.34 0 0 1 1.042 2.122c.092.226.142.46.142.699l-.019.188.019.312c0 3.587-3.424 10.992-7.028 10.992s-7.028-7.405-7.028-10.992l.019-.317-.019-.183c0-.223.046-.439.126-.65a5.415 5.415 0 0 1 .946-2.086c-5.065-.516-7.127-1.85-8.329-3.756-8.035.307-11.273 3.525-14.984 3.963-4.606.543-4.733-5.547-2.31-12.512A17.955 17.955 0 0 0 28 85c-2.144 0-4.19.395-6.097 1.082C21.203 80.401 16.37 76 10.5 76 4.149 76-1 81.149-1 87.5c0 6.339 5.128 11.478 11.462 11.498z"/><path fill="#DF5A48" d="M46.962 65c-11.866 4.354-21.684 32.102-12.114 30.969 3.881-.459 7.232-3.996 16.152-3.996-.019.032-1.925-1.307-2.019-4.994-.844-7.889-2.05-21.949-2.019-21.979z"/><path fill="#BD3E25" d="M48.981 86.979C48.137 79.09 46.931 65.03 46.962 65c-.994.364-1.97.905-2.925 1.567.245 12.756 1.74 19.733 2.171 21.79.306 1.46.635 2.74 1.317 3.816A29.709 29.709 0 0 1 51 91.972c-.019.033-1.925-1.306-2.019-4.993z"/><path fill="#647883" d="M96.966 128l.034-.5c0-6.902-7.611-12.5-17-12.5-7.387 0-13.654 2.854-16 7.429-2.345-4.575-8.614-7.429-16-7.429-9.389 0-17 5.598-17 12.5l.034.5h65.932z"/><path fill="#EFC84A" d="M63.917 93C67.507 93 71 95.41 71 99s-3.41 11-7 11-7-7.41-7-11 3.327-6 6.917-6z"/><path fill="#DF5A48" d="M81 65c11.754 4.359 21.48 32.134 12 31-3.845-.459-7.163-4-16-4 .02.032 1.907-1.309 2-5 .837-7.896 2.031-21.97 2-22z"/><path fill="#BD3E25" d="M81.771 88.191c.434-2.01 1.939-8.87 2.189-21.579-.964-.683-1.954-1.239-2.96-1.612.031.03-1.163 14.104-2 22-.093 3.691-1.98 5.032-2 5 1.156 0 2.213.063 3.193.17.815-1.106 1.245-2.437 1.578-3.979z"/><path fill="#D7B442" d="M64 95c3.866 0 7 1.567 7 3.5 0 1.934-3.134 3.5-7 3.5s-7-1.566-7-3.5c0-1.933 3.134-3.5 7-3.5z"/><path fill="#fff" d="M63.5 19C65.972 18.938 82 38.7 82 63c0 15.049-1.755 22.998-2.229 25.191C78.686 93.21 76.596 96 63.5 96c-13.057 0-14.292-2.871-15.292-7.643C47.739 86.115 46 78.049 46 63c0-24.3 14.991-43.859 17.5-44z"/><path fill="#334D5D" d="M64 39c4.971 0 9 4.029 9 9s-4.029 9-9 9a9 9 0 0 1 0-18z"/><path fill="#ADB2B3" d="M64 42a6 6 0 1 1 0 12 6 6 0 0 1 0-12z"/><path fill="#E6E6E6" d="M63.5 19c-.225.013-.554.188-.96.502C66.859 22.716 80 40.997 80 63c0 15.049-1.755 22.998-2.229 25.191-1.057 4.885-3.106 7.647-15.259 7.801L63.5 96c13.096 0 15.186-2.79 16.271-7.809C80.245 85.998 82 78.049 82 63c0-24.3-16.028-44.062-18.5-44z"/><path fill="#E6E6E6" d="M64 57c-4.632 0-8.443-3.5-8.941-8A8.935 8.935 0 0 0 55 50a9 9 0 0 0 18 0c0-.338-.022-.671-.059-1-.498 4.5-4.308 8-8.941 8z"/><path fill="#DF5A48" d="M63.938 65C66.423 65 69 69.611 69 79c0 9.39-2.577 20-5.062 20S59 88.39 59 79c0-9.389 2.452-14 4.938-14z"/><path fill="#C95140" d="M64 65c2.485 0 5 4.611 5 14 0 9.39-2.515 20-5 20"/></g></svg>