<svg xmlns="http://www.w3.org/2000/svg" width="128" height="128"><path fill="#27718F" d="M64 0c35.346 0 64 28.654 64 64 0 35.347-28.654 64-64 64-35.346 0-64-28.653-64-64C0 28.654 28.654 0 64 0z"/><path fill="#EBEEEE" d="M100 67a3 3 0 0 0 0-6h-3.143a32.896 32.896 0 0 0-1.282-6.605l3.521-1.443c1.562-.641 2.316-2.445 1.686-4.031s-2.41-2.352-3.973-1.711l-3.582 1.469a33.076 33.076 0 0 0-3.831-5.749l2.728-2.728a3.058 3.058 0 0 0-4.324-4.324l-2.728 2.728a33.115 33.115 0 0 0-5.772-3.843l1.461-3.57c.641-1.562-.125-3.342-1.707-3.973-1.583-.632-3.385.123-4.023 1.687L73.59 32.42A32.872 32.872 0 0 0 67 31.142V28a3 3 0 0 0-6 0v3.142a32.99 32.99 0 0 0-6.606 1.283l-1.443-3.52c-.641-1.563-2.446-2.318-4.031-1.687-1.586.631-2.352 2.41-1.711 3.973l1.469 3.583a33.07 33.07 0 0 0-5.749 3.83l-2.728-2.728a3.058 3.058 0 0 0-4.324 4.324l2.728 2.728a33.115 33.115 0 0 0-3.843 5.772l-3.571-1.461c-1.562-.64-3.341.125-3.973 1.707-.631 1.583.124 3.385 1.687 4.024l3.515 1.438a32.886 32.886 0 0 0-1.278 6.59H28a3 3 0 1 0 0 6h3.142a32.827 32.827 0 0 0 1.283 6.605l-3.52 1.443c-1.562.641-2.317 2.445-1.687 4.031.631 1.586 2.41 2.352 3.973 1.711l3.583-1.469a33.038 33.038 0 0 0 3.831 5.749l-2.696 2.696a3.058 3.058 0 0 0 4.324 4.324l2.696-2.696a33.04 33.04 0 0 0 5.772 3.843l-1.461 3.57c-.64 1.563.125 3.342 1.708 3.973 1.583.632 3.384-.123 4.023-1.686l1.439-3.516A32.886 32.886 0 0 0 61 96.854V100a3 3 0 1 0 6 0v-3.142a32.897 32.897 0 0 0 6.605-1.283l1.443 3.521c.641 1.562 2.445 2.317 4.031 1.686 1.586-.631 2.352-2.409 1.711-3.973l-1.469-3.583a32.968 32.968 0 0 0 5.748-3.83l2.697 2.696a3.06 3.06 0 0 0 4.324 0 3.06 3.06 0 0 0 0-4.324l-2.697-2.696a33.045 33.045 0 0 0 3.844-5.772l3.57 1.462c1.562.639 3.342-.125 3.973-1.708s-.123-3.385-1.686-4.024l-3.514-1.44A32.815 32.815 0 0 0 96.857 67H100zM84.674 45.154c3.905 4.281 6.514 9.766 7.162 15.846h-4.029a23.905 23.905 0 0 0-5.949-13.03l2.816-2.816zM66 36.079a27.856 27.856 0 0 1 15.783 6.31l-2.839 2.839A23.88 23.88 0 0 0 66 40.09v-4.011zm-4 0v4.011a23.869 23.869 0 0 0-12.944 5.138l-2.839-2.839A27.856 27.856 0 0 1 62 36.079zm-18.674 9.075l2.816 2.815a23.901 23.901 0 0 0-5.949 13.03h-4.029c.648-6.079 3.257-11.563 7.162-15.845zm-.939 36.63A27.866 27.866 0 0 1 36.024 65h4.001a23.876 23.876 0 0 0 5.202 13.944l-2.84 2.84zM62 91.921a27.88 27.88 0 0 1-16.854-7.238l2.824-2.824A23.904 23.904 0 0 0 62 87.911v4.01zM44 64c0-11.046 8.954-20 20-20s20 8.954 20 20-8.954 20-20 20-20-8.954-20-20zm22 27.921V87.91a23.891 23.891 0 0 0 14.029-6.052l2.824 2.824A27.87 27.87 0 0 1 66 91.921zm19.613-10.137l-2.841-2.84A23.879 23.879 0 0 0 87.974 65h4.001a27.859 27.859 0 0 1-6.362 16.784z"/><path fill="#EBEEEE" d="M100 67a3 3 0 0 0 0-6h-3.143a32.896 32.896 0 0 0-1.282-6.605l3.521-1.443c1.562-.641 2.316-2.445 1.686-4.031s-2.41-2.352-3.973-1.711l-3.582 1.469a33.076 33.076 0 0 0-3.831-5.749l2.728-2.728a3.058 3.058 0 0 0-4.324-4.324l-2.728 2.728a33.115 33.115 0 0 0-5.772-3.843l1.461-3.57c.641-1.562-.125-3.342-1.707-3.973-1.583-.632-3.385.123-4.023 1.687L73.59 32.42A32.872 32.872 0 0 0 67 31.142V28a3 3 0 0 0-6 0v3.142a32.99 32.99 0 0 0-6.606 1.283l-1.443-3.52c-.641-1.563-2.446-2.318-4.031-1.687-1.586.631-2.352 2.41-1.711 3.973l1.469 3.583a33.07 33.07 0 0 0-5.749 3.83l-2.728-2.728a3.058 3.058 0 0 0-4.324 4.324l2.728 2.728a33.115 33.115 0 0 0-3.843 5.772l-3.571-1.461c-1.562-.64-3.341.125-3.973 1.707-.631 1.583.124 3.385 1.687 4.024l3.515 1.438a32.886 32.886 0 0 0-1.278 6.59H28a3 3 0 1 0 0 6h3.142a32.827 32.827 0 0 0 1.283 6.605l-3.52 1.443c-1.562.641-2.317 2.445-1.687 4.031.631 1.586 2.41 2.352 3.973 1.711l3.583-1.469a33.038 33.038 0 0 0 3.831 5.749l-2.696 2.696a3.058 3.058 0 0 0 4.324 4.324l2.696-2.696a33.04 33.04 0 0 0 5.772 3.843l-1.461 3.57c-.64 1.563.125 3.342 1.708 3.973 1.583.632 3.384-.123 4.023-1.686l1.439-3.516A32.886 32.886 0 0 0 61 96.854V100a3 3 0 1 0 6 0v-3.142a32.897 32.897 0 0 0 6.605-1.283l1.443 3.521c.641 1.562 2.445 2.317 4.031 1.686 1.586-.631 2.352-2.409 1.711-3.973l-1.469-3.583a32.968 32.968 0 0 0 5.748-3.83l2.697 2.696a3.06 3.06 0 0 0 4.324 0 3.06 3.06 0 0 0 0-4.324l-2.697-2.696a33.045 33.045 0 0 0 3.844-5.772l3.57 1.462c1.562.639 3.342-.125 3.973-1.708s-.123-3.385-1.686-4.024l-3.514-1.44A32.815 32.815 0 0 0 96.857 67H100zM84.674 45.154c3.905 4.281 6.514 9.766 7.162 15.846h-4.029a23.905 23.905 0 0 0-5.949-13.03l2.816-2.816zM66 36.079a27.856 27.856 0 0 1 15.783 6.31l-2.839 2.839A23.88 23.88 0 0 0 66 40.09v-4.011zm-4 0v4.011a23.869 23.869 0 0 0-12.944 5.138l-2.839-2.839A27.856 27.856 0 0 1 62 36.079zm-18.674 9.075l2.816 2.815a23.901 23.901 0 0 0-5.949 13.03h-4.029c.648-6.079 3.257-11.563 7.162-15.845zm-.939 36.63A27.866 27.866 0 0 1 36.024 65h4.001a23.876 23.876 0 0 0 5.202 13.944l-2.84 2.84zM62 91.921a27.88 27.88 0 0 1-16.854-7.238l2.824-2.824A23.904 23.904 0 0 0 62 87.911v4.01zM44 64c0-11.046 8.954-20 20-20s20 8.954 20 20-8.954 20-20 20-20-8.954-20-20zm22 27.921V87.91a23.891 23.891 0 0 0 14.029-6.052l2.824 2.824A27.87 27.87 0 0 1 66 91.921zm19.613-10.137l-2.841-2.84A23.879 23.879 0 0 0 87.974 65h4.001a27.859 27.859 0 0 1-6.362 16.784z"/><path fill="#ddd" d="M78.017 62.771h-1.538a12.4 12.4 0 0 0-.386-2.051l1.318-.528a.973.973 0 0 0 .542-1.267l-.184-.45a.983.983 0 0 0-1.276-.538l-1.263.507a12.618 12.618 0 0 0-1.536-2.397l1.102-1.102a.985.985 0 0 0 0-1.392l-.349-.348a.983.983 0 0 0-1.392 0l-1.101 1.101a12.493 12.493 0 0 0-2.142-1.412l.577-1.429a.984.984 0 0 0-.543-1.28L69.391 50a.982.982 0 0 0-1.279.544l-.578 1.429a12.427 12.427 0 0 0-2.304-.451v-1.538a.983.983 0 0 0-.983-.983h-.492a.983.983 0 0 0-.983.983v1.538c-.709.068-1.396.207-2.065.39l-.531-1.323a.972.972 0 0 0-1.268-.542l-.452.184a.983.983 0 0 0-.539 1.276l.511 1.271c-.852.424-1.654.931-2.382 1.529L54.96 53.22a.984.984 0 0 0-1.391 0l-.348.348a.984.984 0 0 0 0 1.391l1.087 1.087a12.482 12.482 0 0 0-1.405 2.126l-1.426-.576a.984.984 0 0 0-1.281.544l-.185.457a.982.982 0 0 0 .544 1.28l1.423.575c-.22.747-.378 1.521-.456 2.319h-1.537a.984.984 0 0 0-.984.983v.492c0 .543.44.983.984.983h1.537c.084.868.256 1.71.508 2.517l-1.432.574a.972.972 0 0 0-.542 1.267l.184.45a.982.982 0 0 0 1.276.538l1.464-.587c.38.698.825 1.356 1.327 1.966L53.22 73.04a.986.986 0 0 0 0 1.393l.348.348a.983.983 0 0 0 1.392 0l1.086-1.086c.66.542 1.379 1.013 2.141 1.412l-.577 1.429a.983.983 0 0 0 .543 1.28l.456.184a.983.983 0 0 0 1.28-.544l.577-1.429c.743.218 1.511.375 2.304.451v1.538c0 .543.44.983.983.983h.492c.543 0 .983-.44.983-.983v-1.538a12.488 12.488 0 0 0 2.511-.505l.577 1.438a.973.973 0 0 0 1.269.542l.451-.184a.983.983 0 0 0 .539-1.276l-.592-1.471a12.516 12.516 0 0 0 1.971-1.33l1.086 1.087a.983.983 0 0 0 1.392 0l.348-.348a.984.984 0 0 0 0-1.391l-1.087-1.087a12.473 12.473 0 0 0 1.42-2.156l1.45.586a.983.983 0 0 0 1.281-.544l.185-.456a.984.984 0 0 0-.544-1.281l-1.453-.587c.215-.737.37-1.5.446-2.287h1.538c.543 0 .983-.44.983-.983v-.492a.981.981 0 0 0-.982-.982zM64 71.623a7.623 7.623 0 1 1 0-15.246 7.623 7.623 0 0 1 0 15.246zM64 61a3 3 0 1 0 0 6 3 3 0 0 0 0-6z"/><path fill="#ddd" d="M78.017 62.771h-1.538a12.4 12.4 0 0 0-.386-2.051l1.318-.528a.973.973 0 0 0 .542-1.267l-.184-.45a.983.983 0 0 0-1.276-.538l-1.263.507a12.618 12.618 0 0 0-1.536-2.397l1.102-1.102a.985.985 0 0 0 0-1.392l-.349-.348a.983.983 0 0 0-1.392 0l-1.101 1.101a12.493 12.493 0 0 0-2.142-1.412l.577-1.429a.984.984 0 0 0-.543-1.28L69.391 50a.982.982 0 0 0-1.279.544l-.578 1.429a12.427 12.427 0 0 0-2.304-.451v-1.538a.983.983 0 0 0-.983-.983h-.492a.983.983 0 0 0-.983.983v1.538c-.709.068-1.396.207-2.065.39l-.531-1.323a.972.972 0 0 0-1.268-.542l-.452.184a.983.983 0 0 0-.539 1.276l.511 1.271c-.852.424-1.654.931-2.382 1.529L54.96 53.22a.984.984 0 0 0-1.391 0l-.348.348a.984.984 0 0 0 0 1.391l1.087 1.087a12.482 12.482 0 0 0-1.405 2.126l-1.426-.576a.984.984 0 0 0-1.281.544l-.185.457a.982.982 0 0 0 .544 1.28l1.423.575c-.22.747-.378 1.521-.456 2.319h-1.537a.984.984 0 0 0-.984.983v.492c0 .543.44.983.984.983h1.537c.084.868.256 1.71.508 2.517l-1.432.574a.972.972 0 0 0-.542 1.267l.184.45a.982.982 0 0 0 1.276.538l1.464-.587c.38.698.825 1.356 1.327 1.966L53.22 73.04a.986.986 0 0 0 0 1.393l.348.348a.983.983 0 0 0 1.392 0l1.086-1.086c.66.542 1.379 1.013 2.141 1.412l-.577 1.429a.983.983 0 0 0 .543 1.28l.456.184a.983.983 0 0 0 1.28-.544l.577-1.429c.743.218 1.511.375 2.304.451v1.538c0 .543.44.983.983.983h.492c.543 0 .983-.44.983-.983v-1.538a12.488 12.488 0 0 0 2.511-.505l.577 1.438a.973.973 0 0 0 1.269.542l.451-.184a.983.983 0 0 0 .539-1.276l-.592-1.471a12.516 12.516 0 0 0 1.971-1.33l1.086 1.087a.983.983 0 0 0 1.392 0l.348-.348a.984.984 0 0 0 0-1.391l-1.087-1.087a12.473 12.473 0 0 0 1.42-2.156l1.45.586a.983.983 0 0 0 1.281-.544l.185-.456a.984.984 0 0 0-.544-1.281l-1.453-.587c.215-.737.37-1.5.446-2.287h1.538c.543 0 .983-.44.983-.983v-.492a.981.981 0 0 0-.982-.982zM64 71.623a7.623 7.623 0 1 1 0-15.246 7.623 7.623 0 0 1 0 15.246zM64 61a3 3 0 1 0 0 6 3 3 0 0 0 0-6z"/></svg>