<svg xmlns="http://www.w3.org/2000/svg" viewBox="0 0 600 600"><circle fill="#FFCC42" cx="299" cy="299.9" r="299.9"/><path fill="#EF4F5B" d="M105.2 204l39.4 97h9.1l-39.3-97z"/><path fill="#C34024" d="M447 377h-31.3l-28.1 36H447z"/><circle fill="#FE6236" cx="336.6" cy="315.9" r="114"/><circle fill="#B13B27" cx="336.6" cy="315.9" r="71.4"/><path fill="#C34024" d="M336.6 377.4c-33.9 0-61.5-27.6-61.5-61.5s27.6-61.5 61.5-61.5S398 282 398 315.9s-27.5 61.5-61.4 61.5z"/><path fill="#FE6236" d="M460.8 365.1c-15.4 0-27.9 12.5-27.9 27.9 0 15.4 12.5 27.9 27.9 27.9 15.4 0 27.9-12.5 27.9-27.9 0-15.4-12.5-27.9-27.9-27.9zm0 42.4c-8 0-14.6-6.5-14.6-14.6 0-8 6.5-14.6 14.6-14.6s14.6 6.5 14.6 14.6-6.5 14.6-14.6 14.6zm-165-198c-1.7-.6-57.8.8-57.8.8v3.7h-49v-10h-83.8l39.4 97h85.7l65.5-91.5z"/><path fill="#B13B27" d="M293.7 209.4c-2.3-.2-11.2-.6-21.6-.6-32.1 19.6-54.6 52.2-58.8 92.2h10c4.9-40 32.6-76.3 70.4-91.6z"/></svg>