<svg xmlns="http://www.w3.org/2000/svg" viewBox="0 0 175 175"><path fill="#EFC75E" d="M53 121.8c8.1 8.1 10.6 21.4 2.5 29.5-8.1 8.1-32.6 17.1-40.8 9-8.1-8.1.9-32.5 9.1-40.6 8-8.1 21-6 29.2 2.1z"/><path fill="#E2574C" d="M128 103.8c12.2 25.4-17.6 84.5-31.4 67.7-5.6-6.8-5.2-17.6-19.9-31.5 0 .1 5.3.9 11.6-4.7 14.5-11.1 39.7-31.4 39.7-31.5zM76.6 46.9c-27.4-12.4-91 17.2-72.9 31.2 7.3 5.7 19 5.4 34.1 20.1-.1 0-1-5.4 5-11.6 12-14.4 33.7-39.7 33.8-39.7z"/><path fill="#CF5349" d="M64.5 44.1l-1.2-.1c-6 7.4-20.7 25.5-29.7 36.9-3.7 4-4.7 7.6-4.9 9.8 1.8 1.2 3.6 2.6 5.4 4.2.5-2.2 1.7-5.2 4.7-8.5 11.4-14.7 32.3-40.3 32.4-40.3-1.9-.8-4.3-1.5-6.7-2zm63.7 60.1c-3.6 3-26.3 21.6-39.7 32.2-4.5 4.1-8.4 4.9-10.4 5 1.9 1.9 3.6 3.8 5 5.7 1.8 0 6-.5 10.9-5 11.3-8.9 28.9-23.3 36.5-29.6-.4-3-1.1-5.8-2.3-8.3z"/><path fill="#D7B354" d="M33.7 114.8c1.1 5.1 4.6 11.1 10 16.5s11.4 8.8 16.5 10c.9-6.8-2-14.3-7.2-19.5-5.3-5.3-12.6-7.9-19.3-7z"/><path fill="#EBEBEB" d="M173.6 1.3c4.1 3.9-1.9 61.3-41.2 100.2-24.3 24.1-40.4 33.5-44.3 36.8-10.7 4.8-17.7 7.4-38.9-13.6C28.2 103.8 32.3 98 37 88c3.5-3.9 13.1-20.1 37.4-44.2 39.2-39 94.9-46.3 99.2-42.5z"/><path fill="#324D5B" d="M124.6 50.2c8.5 8.5 8.5 22.2 0 30.7s-22.2 8.5-30.6 0c-8.5-8.5-8.5-22.2 0-30.7 8.4-8.4 22.1-8.4 30.6 0z"/><path fill="#CCD0D2" d="M117 57.9c4.3 4.2 4.3 11.1 0 15.3-4.3 4.2-11.2 4.2-15.4 0-4.3-4.2-4.3-11.1 0-15.3 4.2-4.2 11.1-4.2 15.4 0z"/></svg>