<svg xmlns="http://www.w3.org/2000/svg" viewBox="0 0 600 600"><path fill="#324D5B" d="M192.3 0h215.1c30.9 0 56.1 25.3 56.1 56.1v486.4c0 30.9-25.3 56.1-56.1 56.1H192.3c-30.9 0-56.1-25.3-56.1-56.1V56.1C136.1 25.3 161.4 0 192.3 0z"/><path fill="#3F5E6D" d="M173.6 84.2h252.5c5.1 0 9.4 4.2 9.4 9.4v411.5c0 5.1-4.2 9.4-9.4 9.4H173.6c-5.1 0-9.4-4.2-9.4-9.4V93.5c0-5.1 4.2-9.3 9.4-9.3z"/><path fill="#99A6AD" d="M276.4 542.5h46.8c8 0 14 6.1 14 14s-6.1 14-14 14h-46.8c-8 0-14-6.1-14-14 0-7.5 6.1-14 14-14zm-4.6-509.8h56.1c5.1 0 9.4 4.2 9.4 9.4s-4.2 9.4-9.4 9.4h-56.1c-5.1 0-9.4-4.2-9.4-9.4s4.2-9.4 9.4-9.4z"/><path fill="#4E6B78" d="M319 237.1l8-8c.9-.9.9-2.8 0-3.7-.9-.9-2.8-.9-3.7 0l-10.3 9.8c-3.7-.9-7.5-1.4-11.2-1.4-3.7 0-7.5.5-11.2 1.4l-9.4-9.8c-.9-.9-2.8-.9-3.7 0-.9.9-.9 2.8 0 3.7l8 8c-13.6 5.1-22.9 16.4-22.9 29.5h79.5c-.2-13.1-9.5-24.4-23.1-29.5zm-28.5 20.1c-2.8 0-4.7-1.9-4.7-4.7 0-2.8 1.9-4.7 4.7-4.7 2.8 0 4.7 1.9 4.7 4.7-.1 2.8-1.9 4.7-4.7 4.7zm23.4 0c-2.8 0-4.7-1.9-4.7-4.7 0-2.8 1.9-4.7 4.7-4.7s4.7 1.9 4.7 4.7c-.1 2.8-1.9 4.7-4.7 4.7zm-51.5 65.5c0 8 6.1 14 14 14v19.6c0 4.7 4.2 8.4 9.4 8.4 5.1 0 9.4-3.7 9.4-8.4v-19.6h14v19.6c0 4.7 4.2 8.4 9.4 8.4 5.1 0 9.4-3.7 9.4-8.4v-19.6c8 0 14-6.1 14-14v-51.4h-79.5v51.4zm-11.7-51.5c-3.7 0-7 3.3-7 7v37.4c0 3.7 3.3 7 7 7s7-3.3 7-7v-37.4c0-3.7-3.2-7-7-7zm102.9 0c-3.7 0-7 3.3-7 7v37.4c0 3.7 3.3 7 7 7s7-3.3 7-7v-37.4c0-3.7-3.3-7-7-7z"/></svg>