<svg xmlns="http://www.w3.org/2000/svg" width="128" height="128"><path fill="#f2f2f2" d="M64 0c35.346 0 64 28.654 64 64.001C128 99.346 99.346 128 64 128S0 99.346 0 64.001C0 28.654 28.654 0 64 0z"/><path fill="#EFC84A" d="M33 73h62a3 3 0 0 1 3 3v13a3 3 0 0 1-3 3H33a3 3 0 0 1-3-3V76a3 3 0 0 1 3-3z"/><path fill="#4A606E" d="M57.104 31c.604-2.282 3.236-4 6.392-4s5.788 1.718 6.392 4h2.104c-.336-3.355-4.007-6-8.496-6s-8.16 2.645-8.496 6h2.104z"/><path fill="#334D5D" d="M82 31H46c-6.627 0-12 5.373-12 12v48c0 3.312 2.687 6 6 6h48c3.313 0 6-2.688 6-6V43c0-6.627-5.373-12-12-12z"/><path fill="#E27C3F" d="M34 83h60v2H34v-2z"/><path fill="#4A606E" d="M34 91c0 3.312 2.687 6 6 6h48c3.313 0 6-2.688 6-6v-6H34v6z"/><path fill="#EFC84A" d="M82 31H46c-6.627 0-12 5.373-12 12v4c0 6.628 5.373 12 12 12h36c6.627 0 12-5.372 12-12v-4c0-6.627-5.373-12-12-12z"/><path fill="#E27C3F" d="M52 30h-3a1 1 0 0 0-1 1v44s1.855 3 2.433 3C51.189 78 53 75 53 75V31a1 1 0 0 0-1-1zm27 0h-3a1 1 0 0 0-1 1v44s1.855 3 2.433 3C78.189 78 80 75 80 75V31a1 1 0 0 0-1-1z"/><path fill="#EBEEEE" d="M47 71h7v-7h-7v7zm2-5h3v3h-3v-3zm25-2v7h7v-7h-7zm5 5h-3v-3h3v3z"/></svg>