<svg xmlns="http://www.w3.org/2000/svg" width="128" height="128"><path fill="#EBEEEE" d="M64 0c35.346 0 64 28.654 64 64 0 35.347-28.654 64-64 64S0 99.347 0 64C0 28.654 28.654 0 64 0z"/><path fill="#E27C3F" d="M36.266 26.995l55.469.01a4.28 4.28 0 0 1 4.28 4.28l-.08 65.423a4.28 4.28 0 0 1-4.28 4.28H36.266a4.28 4.28 0 0 1-4.28-4.28V31.243c-.001-2.363 1.916-4.248 4.28-4.248z"/><path fill="#FFA068" d="M36.266 36.964l55.469.041a4.28 4.28 0 0 1 4.28 4.28l-.08 55.423a4.28 4.28 0 0 1-4.28 4.28H36.266a4.28 4.28 0 0 1-4.28-4.28V41.243a4.278 4.278 0 0 1 4.28-4.279z"/><path fill="#CD5929" d="M50 57h34v10H50V57z"/><path fill="#E76B38" d="M50 71v3h34v-3H50zm0 8h24v-3H50v3z"/><path fill="#D5753A" d="M35 27h1c1.656 0 1.955-.023 2 0v74c-.047.028-.344 0-2 0h-1a3 3 0 0 1-3-3V30c0-1.656 1.344-3 3-3z"/><path fill="#FFB387" d="M38 37h1v64h-1V37z"/><path fill="#fff" d="M37 30h53a3 3 0 0 1 3 3v1c0 1.657-.009 3.023 0 3H37c-1.656 0-2-1.343-2-3v-1c0-1.656.344-3 2-3z"/></svg>