<svg xmlns="http://www.w3.org/2000/svg" xmlns:xlink="http://www.w3.org/1999/xlink" viewBox="0 0 600 600"><path fill="#CCCBCB" d="M299.9 0c165.6 0 299.8 134.2 299.8 299.8 0 165.6-134.2 299.8-299.8 299.8S.1 465.4.1 299.8 134.3 0 299.9 0z"/><path fill="#415E6D" d="M134.4 120.5l104.3 27.9c9.6 2.6 15.3 12.4 12.7 22l-111.8 416c-2.6 9.6-12.4 15.3-22 12.7L13.3 571.3C3.7 568.7-2 558.9.6 549.3l111.8-416.1c2.5-9.6 12.4-15.3 22-12.7z"/><path fill="#2C4552" d="M97.8 468.7c16 4.3 25.5 20.7 21.2 36.7-4.3 16-20.7 25.5-36.7 21.2-16-4.3-25.5-20.7-21.2-36.7 4.2-16 20.7-25.5 36.7-21.2z"/><path fill="#FFF" d="M102.4 451.5c-25.6-6.8-51.9 8.3-58.8 33.9-6.9 25.5 8.3 51.8 33.9 58.6 25.6 6.8 51.9-8.3 58.8-33.9 6.9-25.5-8.3-51.7-33.9-58.6zm16.6 54c-4.3 16-20.7 25.4-36.7 21.2S56.8 506 61 490c4.3-16 20.7-25.4 36.7-21.2 16.1 4.3 25.6 20.8 21.3 36.7zm98.5-321.9L137.6 162c-3.1-.9-6.4 1-7.2 4.2L72.3 384.8c-.8 3.2 1 6.4 4.2 7.3l79.9 21.6c3.1.9 6.4-1 7.2-4.2L221.7 191c.9-3.3-1-6.5-4.2-7.4z"/><path fill="#B2B2B2" d="M120.8 263.8l-3.2 11.2 59.2 15.1 3.2-11.2-59.2-15.1zm-10.6 39l59.2 15 3.2-11.2-59.2-15.1-3.2 11.3z"/><path fill="#25A5D0" d="M141.1 197.9l56.8 14.8-9.1 33.2-56.8-14.8 9.1-33.2z"/><defs><path id="a" d="M299.9 0c165.6 0 299.8 134.2 299.8 299.8 0 165.6-134.2 299.8-299.8 299.8S.1 465.4.1 299.8 134.3 0 299.9 0z"/></defs><clipPath id="b"><use xlink:href="#a" overflow="visible"/></clipPath><g clip-path="url(#b)"><path fill="#415E6D" d="M413.8 131.9h107.9c9.9 0 18 8.1 18 18v431.8c0 9.9-8.1 18-18 18H413.8c-9.9 0-18-8-18-18V149.9c.1-9.9 8.1-18 18-18z"/><path fill="#2C4552" d="M464.8 485.7c18.2 0 33 13.4 33 30s-14.8 30-33 30-33-13.4-33-30 14.8-30 33-30z"/><path fill="#415E6D" d="M269.9 131.9h107.9c9.9 0 18 8.1 18 18v431.8c0 9.9-8.1 18-18 18H269.9c-9.9 0-18-8-18-18V149.9c0-9.9 8.1-18 18-18z"/><path fill="#2C4552" d="M323.9 485.7c16.6 0 30 13.4 30 30s-13.4 30-30 30-30-13.4-30-30 13.4-30 30-30z"/><path fill="#FFF" d="M323.9 467.7c-26.5 0-48 21.5-48 48s21.5 48 48 48 48-21.5 48-48-21.5-48-48-48zm0 78c-16.6 0-30-13.4-30-30s13.4-30 30-30 30 13.4 30 30-13.4 30-30 30zm42-365.8h-84c-3.3 0-6 2.7-6 6v227.9c0 3.3 2.7 6 6 6h84c3.3 0 6-2.7 6-6V185.9c0-3.3-2.7-6-6-6z"/><path fill="#B2B2B2" d="M293.9 275.9v12h60v-12h-60zm0 41.9h60v-12h-60v12z"/><path fill="#4DBEA9" d="M293.9 215.9h60v36h-60v-36z"/><path fill="#344B57" d="M263.9 581.7V149.9c0-9.9 8.1-18 18-18h-12c-9.9 0-18 8.1-18 18v431.8c0 9.9 8.1 18 18 18h12c-9.9 0-18-8.1-18-18zm144 0V149.9c0-9.9 8.1-18 18-18h-12c-9.9 0-18 8.1-18 18v431.8c0 9.9 8.1 18 18 18h12c-10 0-18-8.1-18-18z"/><path fill="#233742" d="M464.8 485.7c-11.3 0-21.2 5.2-27.2 13 5.7-4.4 13.1-7 21.2-7 18.2 0 33 13.4 33 30 0 6.3-2.1 12.1-5.8 17 7.2-5.5 11.8-13.8 11.8-23 0-16.5-14.8-30-33-30z"/><path fill="#FFF" d="M467.8 467.7c-26.5 0-48 21.5-48 48s21.5 48 48 48 48-21.5 48-48-21.5-48-48-48zm0 78c-16.6 0-30-13.4-30-30s13.4-30 30-30 30 13.4 30 30-13.4 30-30 30zm42-365.8h-84c-3.3 0-6 2.7-6 6v227.9c0 3.3 2.7 6 6 6h84c3.3 0 6-2.7 6-6V185.9c0-3.3-2.7-6-6-6z"/><path fill="#B2B2B2" d="M437.8 275.9v12h60v-12h-60zm0 41.9h60v-12h-60v12z"/><path fill="#F2B359" d="M437.8 215.9h60v36h-60v-36z"/><path fill="#233742" d="M323.9 485.7c-9.8 0-18.4 4.8-23.9 12.1 5-3.8 11.2-6.1 17.9-6.1 16.6 0 30 13.4 30 30 0 6.7-2.3 12.9-6.1 17.9 7.3-5.5 12.1-14.1 12.1-23.9 0-16.5-13.4-30-30-30z"/></g><path fill="#233742" d="M97.8 468.7c-12.3-3.3-24.7 1.6-31.8 11.2 7.1-5.4 16.5-7.7 25.8-5.2 16 4.3 25.5 20.7 21.2 36.7-1 3.7-2.7 7.1-4.9 10 5.1-3.9 9.1-9.3 10.9-16 4.3-15.9-5.2-32.4-21.2-36.7z"/><path fill="#344B57" d="M134.4 120.5c-9.6-2.6-19.5 3.1-22 12.7L.6 549.3c-2.6 9.6 3.1 19.4 12.7 22l9.4 2.5c-9.5-2.6-15.2-12.6-12.6-22.1l111.8-416.1c2.4-9.1 11.5-14.6 20.6-12.9l-8.1-2.2z"/></svg>