<svg xmlns="http://www.w3.org/2000/svg" viewBox="0 0 600 600"><path fill="#FFD67D" d="M299.5 0C134.1 0 0 134.1 0 299.5S134.1 599 299.5 599 599 464.9 599 299.5C599.1 134.1 464.9 0 299.5 0z"/><path fill="#E2574C" d="M485.2 167.7H113.8c-13.2 0-24 10.7-24 24v321.7c54 53 128 85.7 209.7 85.7 81.7 0 155.6-32.7 209.7-85.7V191.7c0-13.2-10.7-24-24-24z"/><path fill="#FFF" d="M461.3 221.6H137.8c-6.6 0-12 5.4-12 12v309.8c49 35 108.9 55.6 173.7 55.6s124.7-20.6 173.7-55.6V233.6c.1-6.6-5.3-12-11.9-12z"/><path fill="#BF392B" d="M485.2 167.7H113.8c-13.2 0-24 10.7-24 24v12c0-13.2 10.7-24 24-24h371.4c13.2 0 24 10.7 24 24v-12c0-13.2-10.7-24-24-24z"/><path fill="#999" d="M413.3 485.2H185.7c-3.3 0-6 2.7-6 6s2.7 6 6 6h227.6c3.3 0 6-2.7 6-6s-2.6-6-6-6zm0-59.9H185.7c-3.3 0-6 2.7-6 6s2.7 6 6 6h227.6c3.3 0 6-2.7 6-6s-2.6-6-6-6zm0-59.9H185.7c-3.3 0-6 2.7-6 6s2.7 6 6 6h227.6c3.3 0 6-2.7 6-6s-2.6-6-6-6zm0 179.7H185.7c-3.3 0-6 2.7-6 6s2.7 6 6 6h227.6c3.3 0 6-2.7 6-6s-2.6-6-6-6zM185.7 317.5h227.6c3.3 0 6-2.7 6-6s-2.7-6-6-6H185.7c-3.3 0-6 2.7-6 6s2.7 6 6 6z"/><path fill="#CCD0D2" d="M185.7 191.7h233.6c3.3 0 6 2.7 6 6v41.9c0 9.9-8.1 18-18 18H197.7c-9.9 0-18-8-18-18v-41.9c0-3.3 2.7-6 6-6zm80-59.9h75.8c9.9 0 15.1 7.2 18 18l12 41.9H239.6l12-41.9c1.8-7.7 5.2-18 14.1-18z"/><path fill="#A4A7A9" d="M243.6 177.7l-4 14h131.8l-4-14H243.6z"/><path fill="#B7BBBD" d="M419.3 191.7H185.7c-3.3 0-6 2.7-6 6v18c0-3.3 2.7-6 6-6h233.6c3.3 0 6 2.7 6 6v-18c0-3.3-2.7-6-6-6z"/></svg>