<svg xmlns="http://www.w3.org/2000/svg" viewBox="0 0 437.1 218.8"><path fill="#E4E7E7" d="M286.1 42.1H160.6c-10.5 0-19.1 8.6-19.1 19.1v161c22.8 17.1 51.1 27.3 81.8 27.3 30.7 0 59-10.2 81.8-27.3v-161c.1-10.6-8.4-19.1-19-19.1z"/><path fill="#344C59" d="M294.3 74.8H152.4c-1.5 0-2.7 1.2-2.7 2.7v150.2c21.2 13.7 46.5 21.6 73.7 21.6 27.1 0 52.4-8 73.7-21.6V77.5c-.1-1.5-1.3-2.7-2.8-2.7z"/><path fill="#3F5E6D" d="M291.6 80.3H155.2v150.8c20.1 11.6 43.4 18.3 68.2 18.3 24.9 0 48.1-6.7 68.2-18.3V80.3z"/><path fill="#BFC3C5" d="M237 53h-27.3c-1.5 0-2.7 1.2-2.7 2.7 0 1.5 1.2 2.7 2.7 2.7H237c1.5 0 2.7-1.2 2.7-2.7 0-1.5-1.2-2.7-2.7-2.7zm10.9 0c-1.5 0-2.7 1.2-2.7 2.7 0 1.5 1.2 2.7 2.7 2.7s2.7-1.2 2.7-2.7c0-1.5-1.2-2.7-2.7-2.7zm10.9 0c-1.5 0-2.7 1.2-2.7 2.7 0 1.5 1.2 2.7 2.7 2.7s2.7-1.2 2.7-2.7c0-1.5-1.2-2.7-2.7-2.7z"/><path fill="#4E6B78" d="M200.2 143c-2.3 0-4.1 1.6-4.1 3.5v14.9c0 1.9 1.8 3.5 4.1 3.5s4.1-1.6 4.1-3.5v-14.9c0-1.9-1.8-3.5-4.1-3.5zm30.1-14.2l3.4-3.2c.4-.4.4-1 0-1.4-.4-.4-1.1-.4-1.5 0l-4.1 3.9c-1.5-.3-3-.5-4.7-.5-1.6 0-3.1.2-4.6.5l-4.1-3.9c-.4-.4-1.1-.4-1.5 0-.4.4-.4 1 0 1.4l3.3 3.1c-5.6 2-9.5 6.4-9.5 11.5 0 .1 32.7 0 32.7 0 0-5-3.9-9.4-9.4-11.4zm-12.4 8.7c-1.5 0-2.7-1.2-2.7-2.7s1.2-2.7 2.7-2.7c1.5 0 2.7 1.2 2.7 2.7s-1.2 2.7-2.7 2.7zm10.9 0c-1.5 0-2.7-1.2-2.7-2.7s1.2-2.7 2.7-2.7c1.5 0 2.7 1.2 2.7 2.7s-1.2 2.7-2.7 2.7zm17.7 5.5c-2.3 0-4.1 1.6-4.1 3.5v14.9c0 1.9 1.8 3.5 4.1 3.5s4.1-1.6 4.1-3.5v-14.9c0-1.9-1.8-3.5-4.1-3.5zM207 164.7c0 3.1 2.4 5.6 5.6 5.6v10.4c0 1.8 1.8 3.3 3.9 3.3 2.1 0 3.9-1.5 3.9-3.3v-10.4h5.8v10.4c0 1.8 1.7 3.3 3.8 3.3 2.1 0 3.8-1.5 3.8-3.3v-10.4c3.2 0 5.8-2.5 5.8-5.6V143H207v21.7z"/><path fill="#26A6D1" d="M383.3.1C353.9.1 330 19.5 330 43.4c0 17.5 12.7 32.5 31.1 39.3-1.5 4.9-3.8 10-7.7 14 .1.3 11.3-1.9 22.4-10.5 2.5.3 5 .5 7.6.5 29.4 0 53.3-19.4 53.3-43.3S412.8.1 383.3.1z"/><path fill="#FFF" d="M360 36.8a6.7 6.7 0 1 0 0 13.4 6.7 6.7 0 0 0 0-13.4zm23.3 0a6.7 6.7 0 1 0 0 13.4 6.7 6.7 0 0 0 0-13.4zm23.4 0a6.7 6.7 0 1 0 6.7 6.7c-.1-3.7-3.1-6.7-6.7-6.7z"/><path fill="#2295BC" d="M360.8 83.5c.6-1.5 1.2-3 1.6-4.5-18.3-6.9-31.1-21.9-31.1-39.3 0-3.7.6-7.2 1.7-10.6-2 4.5-3.1 9.3-3.1 14.4 0 17.5 12.7 32.5 31.1 39.3l-.2.7zm23.9-.5c-2.6 0-5.1-.2-7.6-.5-8.5 6.6-17 9.4-20.6 10.2-.9 1.4-1.9 2.8-3.2 4 .1.3 11.3-1.9 22.4-10.5 2.5.3 5 .5 7.6.5 24.9 0 45.8-13.9 51.7-32.7-7.3 16.9-27 29-50.3 29z"/><path fill="#E2574C" d="M349.6 126.4c-11.8 0-21.3 7.7-21.3 17.3 0 7 5.1 13 12.4 15.7-.6 2-1.5 4-3.1 5.6.1.1 4.5-.7 8.9-4.2 1 .1 2 .2 3 .2 11.8 0 21.3-7.7 21.3-17.3.1-9.5-9.4-17.3-21.2-17.3z"/><path fill="#FFF" d="M340.3 141.1c-1.5 0-2.7 1.2-2.7 2.7 0 1.5 1.2 2.7 2.7 2.7s2.7-1.2 2.7-2.7c0-1.5-1.2-2.7-2.7-2.7zm9.3 0c-1.5 0-2.7 1.2-2.7 2.7 0 1.5 1.2 2.7 2.7 2.7s2.7-1.2 2.7-2.7c0-1.5-1.2-2.7-2.7-2.7zm9.4 0c-1.5 0-2.7 1.2-2.7 2.7 0 1.5 1.2 2.7 2.7 2.7s2.7-1.2 2.7-2.7c-.1-1.5-1.3-2.7-2.7-2.7z"/><path fill="#D8544A" d="M340.6 159.7c.3-.6.5-1.2.7-1.8-7.3-2.7-12.4-8.7-12.4-15.7 0-1.5.2-2.9.7-4.2-.8 1.8-1.2 3.7-1.2 5.7 0 7 5.1 13 12.4 15.7l-.2.3zm9.6-.2c-1 0-2-.1-3-.2-3.4 2.6-6.8 3.8-8.2 4.1-.4.6-.8 1.1-1.3 1.6.1.1 4.5-.7 8.9-4.2 1 .1 2 .2 3 .2 10 0 18.3-5.6 20.6-13.1-2.8 6.8-10.7 11.6-20 11.6z"/><path fill="#004D71" d="M31.1 107.2c0 17.3 17.3 31.3 38.5 31.3 1.9 0 3.7-.1 5.5-.4 8 6.2 16.1 7.8 16.2 7.6-2.8-2.9-4.5-6.6-5.6-10.1 13.2-5 22.4-15.8 22.4-28.4 0-17.3-17.3-31.3-38.5-31.3-21.3 0-38.5 14-38.5 31.3z"/><path fill="#FFF" d="M81.7 107.2c0 2.7 2.2 4.8 4.8 4.8 2.7 0 4.8-2.2 4.8-4.8 0-2.7-2.2-4.8-4.8-4.8-2.7 0-4.8 2.1-4.8 4.8zm-16.9 0c0 2.7 2.2 4.8 4.8 4.8 2.7 0 4.8-2.2 4.8-4.8 0-2.7-2.2-4.8-4.8-4.8-2.6 0-4.8 2.1-4.8 4.8zm-16.9 0c0 2.7 2.2 4.8 4.8 4.8 2.7 0 4.8-2.2 4.8-4.8 0-2.7-2.2-4.8-4.8-4.8-2.6 0-4.8 2.1-4.8 4.8z"/><path fill="#012639" d="M85.7 135.6c13.2-5 22.4-15.8 22.4-28.4 0-3.6-.8-7.1-2.2-10.4.8 2.5 1.2 5 1.2 7.7 0 12.6-9.2 23.5-22.4 28.4.3 1.1.7 2.2 1.2 3.2l-.2-.5zm-53.4-20.8c4.2 13.6 19.3 23.6 37.3 23.6 1.9 0 3.7-.1 5.5-.4 8 6.2 16.1 7.8 16.2 7.6-.9-.9-1.6-1.9-2.3-2.9-2.6-.6-8.8-2.6-14.9-7.4-1.8.2-3.6.4-5.5.4-16.8.1-31-8.7-36.3-20.9z"/></svg>