<svg xmlns="http://www.w3.org/2000/svg" viewBox="0 0 600 600"><circle fill="#85CEC3" cx="299.6" cy="300.2" r="300"/><path fill="#37A18E" d="M550.8 136.6L285.5 411.2l.5 29.5h12.2l287.3-231.5c-8.4-25.7-20.1-50.6-34.7-72.6z"/><path fill="#F2F1EF" d="M593.9 123.5L541 71c-7-7-18.7-7-26.2 0L288.4 304.9l-98-96.6c-7-7-18.7-7-26.2 0l-46.9 46.4c-7 7-7 18.7 0 25.8l156.5 155.1c4.2 4.2 9.8 5.6 15.5 5.2 5.6.5 11.2-.9 15.5-5.2L594 149.7c7-7.5 7-19.2-.1-26.2z"/><path fill="#E6E5E3" d="M304.8 435.6L594 149.7c7-7 7-18.7 0-25.8l-8.4-8-296.8 291.6-164-159.8-7 7c-7 7-7 18.7 0 25.8l156.5 155.1c4.2 4.2 9.8 5.6 15.5 5.2 5.1.4 10.7-1 15-5.2z"/></svg>