<svg xmlns="http://www.w3.org/2000/svg" viewBox="0 0 566.3 209.8"><path fill="#EFEFEF" d="M482 122.1h80.2c2.3 0 4.1 1.9 4.1 4.1v79.5c0 2.3-1.9 4.1-4.1 4.1H482c-2.3 0-4.1-1.9-4.1-4.1v-79.5c-.1-2.2 1.8-4.1 4.1-4.1z"/><path fill="#324D5B" d="M487.5 131.8h69.1v18h-69.1v-18z"/><path fill="#AEB5BA" d="M535.8 140.4c.4-.2.8-.4 1-.8.2-.3.3-.8.3-1.2 0-.7-.3-1.3-.8-1.7-.5-.5-1.2-.7-2.1-.7-1 0-1.7.2-2.2.7-.5.5-.8 1-.8 1.7 0 .4.1.8.3 1.1s.6.6 1 .8c-.6.2-1 .6-1.2 1-.3.4-.4.9-.4 1.4 0 .9.3 1.7 1 2.2.6.5 1.3.7 2.2.7 1 0 1.7-.3 2.3-.8.6-.6.9-1.2.9-2.1 0-.6-.1-1-.4-1.4-.1-.4-.5-.7-1.1-.9zm-2.4-2.7c.2-.2.5-.3.9-.3.3 0 .6.1.8.3.2.2.3.5.3.8s-.1.6-.3.8-.5.3-.8.3-.6-.1-.8-.3c-.2-.2-.3-.5-.3-.8s0-.6.2-.8zm1.9 6.1c-.3.3-.6.4-1 .4s-.8-.1-1-.4c-.3-.3-.4-.7-.4-1.2 0-.3.1-.7.3-1 .2-.3.6-.5 1-.5s.8.1 1 .4c.3.3.4.6.4 1 .1.7 0 1-.3 1.3zm8.1-3.4c.4-.2.8-.4 1-.8s.3-.8.3-1.2c0-.7-.3-1.3-.8-1.7-.5-.5-1.2-.7-2.1-.7-1 0-1.7.2-2.2.7-.5.5-.8 1-.8 1.7 0 .4.1.8.3 1.1s.6.6 1 .8c-.6.2-1 .6-1.2 1-.3.4-.4.9-.4 1.4 0 .9.3 1.7 1 2.2.6.5 1.3.7 2.2.7 1 0 1.7-.3 2.3-.8.6-.6.9-1.2.9-2.1 0-.6-.1-1-.4-1.4-.2-.4-.6-.7-1.1-.9zm-2.5-2.7c.2-.2.5-.3.9-.3.3 0 .6.1.8.3.2.2.3.5.3.8s-.1.6-.3.8-.5.3-.8.3-.6-.1-.8-.3-.3-.5-.3-.8 0-.6.2-.8zm1.9 6.1c-.3.3-.6.4-1 .4s-.8-.1-1-.4c-.3-.3-.4-.7-.4-1.2 0-.3.1-.7.3-1 .2-.3.6-.5 1-.5s.8.1 1 .4c.3.3.4.6.4 1 .1.7-.1 1-.3 1.3zm8.7-6.7c-.6-.8-1.5-1.1-2.4-1.1-.9 0-1.7.3-2.3.9-.6.6-.9 1.4-.9 2.4 0 .9.3 1.7.8 2.2.6.6 1.2.8 2 .8.7 0 1.3-.3 1.8-.8-.1 1.1-.3 1.8-.6 2.1-.3.3-.6.5-1 .5-.3 0-.6-.1-.8-.3-.2-.1-.3-.4-.3-.8l-1.8.2c.1.8.4 1.4.9 1.8.5.4 1.1.6 1.9.6 1 0 1.9-.4 2.6-1.2s1-2 1-3.7-.2-2.9-.9-3.6zm-1.5 3.4c-.3.3-.6.4-.9.4s-.7-.1-1-.4c-.3-.3-.3-.8-.3-1.3 0-.6.1-1 .3-1.3s.6-.4.9-.4.7.1 1 .5c.3.3.4.8.4 1.4 0 .4-.1.9-.4 1.1z"/><path fill="#E2574C" d="M504.1 156.7h-13.8c-1.5 0-2.8 1.2-2.8 2.8v13.8c0 1.5 1.2 2.8 2.8 2.8h13.8c1.5 0 2.8-1.2 2.8-2.8v-13.8c0-1.5-1.3-2.8-2.8-2.8zm23.5 0h-13.8c-1.5 0-2.8 1.2-2.8 2.8v13.8c0 1.5 1.2 2.8 2.8 2.8h13.8c1.5 0 2.8-1.2 2.8-2.8v-13.8c0-1.5-1.3-2.8-2.8-2.8zm0 23.5h-13.8c-1.5 0-2.8 1.2-2.8 2.8v13.8c0 1.5 1.2 2.8 2.8 2.8h13.8c1.5 0 2.8-1.2 2.8-2.8V183c0-1.5-1.3-2.8-2.8-2.8zm-23.5 0h-13.8c-1.5 0-2.8 1.2-2.8 2.8v13.8c0 1.5 1.2 2.8 2.8 2.8h13.8c1.5 0 2.8-1.2 2.8-2.8V183c0-1.5-1.3-2.8-2.8-2.8z"/><path fill="#FFF" d="M493 190.6h8.3v-2.8H493v2.8zm26.3-4.9c0 .8.6 1.4 1.4 1.4.8 0 1.4-.6 1.4-1.4 0-.8-.6-1.4-1.4-1.4-.8.1-1.4.7-1.4 1.4zm-2.7 2.8v2.8h8.3v-2.8h-8.3zm4.1 4.2c-.8 0-1.4.6-1.4 1.4s.6 1.4 1.4 1.4c.8 0 1.4-.6 1.4-1.4s-.6-1.4-1.4-1.4zm-22.1-30.5h-2.8v2.8H493v2.8h2.8v2.8h2.8v-2.8h2.8V165h-2.8v-2.8zm20.2 8.1l1.9-1.9 1.9 1.9 1.9-1.9-1.9-1.9 1.9-1.9-1.9-1.9-1.9 1.9-1.9-1.9-1.9 1.9 1.9 1.9-1.9 1.9 1.9 1.9z"/><path fill="#26A6D1" d="M537.3 156.7h16.6c1.5 0 2.8 1.2 2.8 2.8v37.3c0 1.5-1.2 2.8-2.8 2.8h-16.6c-1.5 0-2.8-1.2-2.8-2.8v-37.3c0-1.5 1.3-2.8 2.8-2.8z"/><path fill="#FFF" d="M541.4 174.7v2.8h8.3v-2.8h-8.3zm0 7.6h8.3v-2.8h-8.3v2.8z"/><path fill="#DCDCDC" d="M562.2 207.9H482c-2.3 0-4.1-1.9-4.1-4.1v2.1c0 2.3 1.9 4.1 4.1 4.1h80.2c2.3 0 4.1-1.9 4.1-4.1v-2.1c0 2.2-1.8 4.1-4.1 4.1z"/><path fill="#2E4754" d="M487.5 131.8h69.1v2.8h-69.1v-2.8z"/><path fill="#2993C0" d="M302.7 111.5h183.6c7.2 0 13.1 5.9 13.1 13.1v59c0 7.2-5.9 13.1-13.1 13.1H302.7c-7.2 0-13.1-5.9-13.1-13.1v-59c0-7.2 5.9-13.1 13.1-13.1z"/><path fill="#CCC" d="M394.6 13.1c10.9 0 19.7 5.9 19.7 13.1h13.1c0-14.5-14.7-26.2-32.8-26.2-18.1 0-32.8 11.7-32.8 26.2h13.1c0-7.2 8.8-13.1 19.7-13.1z"/><path fill="#2384AD" d="M348.7 26.2h91.8c21.7 0 39.4 17.6 39.4 39.4v131.2c0 7.2-5.9 13.1-13.1 13.1H322.4c-7.2 0-13.1-5.9-13.1-13.1V65.6c0-21.7 17.6-39.4 39.4-39.4z"/><path fill="#2993C0" d="M329 26.2h131.2c14.5 0 26.2 11.7 26.2 26.2v26.2c0 14.5-11.7 26.2-26.2 26.2H329c-14.5 0-26.2-11.7-26.2-26.2V52.5c-.1-14.5 11.7-26.3 26.2-26.3z"/><path fill="#EFC75E" d="M342.1 164s5.1 13.1 10 13.1 9.6-13.1 9.6-13.1V26.2H342V164zm85.3-137.8V164s5.1 13.1 10 13.1S447 164 447 164V26.2h-19.6z"/><path fill="#E4E7E7" d="M335.5 150.8h32.8v-19.7h-32.8v19.7zm85.3-19.6v19.7h32.8v-19.7h-32.8z"/><path fill="#F0F0F0" d="M141 164.6c-1.2-2.2-4.2-3-6.4-1.7-40 23-91.2 9.5-114.2-30-22.9-39.5-9-90.4 31-113.4 2.2-1.2 3-4.2 1.7-6.4-1.2-2.2-4.2-3-6.4-1.7C2.2 37-13.2 93.6 12.3 137.5c15.9 27.4 43.7 43.4 73.3 45.6v12.8H67.7c-3.9 0-7 3.1-7 7s3.1 7 7 7h45.1c3.9 0 7-3.1 7-7s-3.1-7-7-7H93.7h1.2v-12.4c15.1-.3 30.3-4.4 44.3-12.4 2.3-1.5 3-4.3 1.8-6.5z"/><path fill="#2993C0" d="M93.4 16.9c41.2 0 74.7 33.5 74.7 74.7s-33.5 74.7-74.7 74.7-74.7-33.5-74.7-74.7 33.5-74.7 74.7-74.7z"/><path fill="#8CC6BA" d="M149.1 141.4c5.1-19.9 9.8-48.7-5-45.4-14.2 3.1-31.7 6.5-40.1 7.8s-18.5-7.2-29.9-13.2c-1.6-6.4-1.7-9.8 7.2-16.3 9-6.7 13.2 6.4 16.8 2.5 5.9-7.2 1.9-13.8 9.5-29.4 7.6-15.2 8.4-12.9 13.8-24.9-8.6-3.4-18-5.4-28-5.4-28.9 0-54 16.5-66.4 40.5 2 4.2 4.8 8.6 8.7 13.4 12 14.5 24.6 20.4 44.3 32.5 19.8 12 16.8 17.4 12 22.9s-12.3 28.8 1.9 36.1l6.4 3.9c19.2-2.1 36.5-11.3 48.8-25z"/><path fill="#2384AD" d="M104.3 155.4c-41.2 0-74.7-33.5-74.7-74.7 0-17.9 6.2-34.2 16.6-47.1-16.8 13.8-27.5 34.7-27.5 58 0 41.2 33.5 74.7 74.7 74.7 23.3 0 44.3-10.7 58-27.5-12.9 10.4-29.2 16.6-47.1 16.6z"/><path fill="#7DB2A7" d="M149.2 140.3c-12.4 9.5-28 15.1-45 15.1-6.1 0-12-.8-17.6-2.2 1.1 3.7 3.4 6.8 7.2 8.9 2.5 1.6 4.5 2.8 6.4 3.9h.5l2.6-.3 1.1-.2 2.6-.5.9-.2c3-.6 5.9-1.4 8.7-2.3l.9-.3c.8-.3 1.6-.5 2.2-.8l1.4-.5 2-.9c.5-.2.9-.5 1.6-.6l1.9-.9 1.6-.8 1.7-.9 1.9-1.1c.6-.3 1.1-.6 1.7-1.1.9-.6 1.7-1.2 2.6-1.7l1.2-.9 1.9-1.4 1.2-.9c.6-.5 1.2-.9 1.7-1.4.3-.3.8-.6 1.1-1.1l1.7-1.6c.3-.3.6-.6 1.1-.9l1.9-1.9.8-.8.2-.2c.2-.7.3-1.2.3-1.5zM31.3 64.9c2.5-11.5 7.8-22.1 14.9-31.1l-.2.2c-.9.8-1.7 1.4-2.5 2.2l-.8.8c-.6.6-1.4 1.2-2 2l-.9.9-1.8 1.8c-.3.3-.6.6-.9 1.1l-1.9 2.3c-.3.3-.6.8-.9 1.2L33 47.9l-1.2 1.7-1.2 1.9c-.3.5-.6.9-.9 1.6l-.9 1.4-1.4 2.5-.5.8c1.3 2.1 2.7 4.4 4.4 7.1z"/><path fill="#EFEFEF" d="M234.1 132.4v-17.2h.3c2.2 0 4-1.7 4-3.9s-1.8-3.9-4-3.9h-28c-2.2 0-4 1.7-4 3.9s1.8 3.9 4 3.9h.3v16.9c-15.6 5.4-26.6 20.3-26.6 37.6 0 22.1 17.9 40 40 40s40-17.9 40-40c-.3-17-11-31.5-26-37.3z"/><path fill="#E5E4E4" d="M220.3 118.7h-13.8v13.4c-15.6 5.5-26.6 20.4-26.6 37.7 0 22.1 17.9 40 40 40h.4v-91.1z"/><path fill="#E2574C" d="M213.5 162.1c15.8 0 34-14.6 38.5.1.8 2.5.9 5.2.9 7.9 0 18.7-15 33.8-33.5 33.8s-33.5-15.1-33.5-33.8c0-4 .7-7.7 1.9-11.3 3.1-8.1 11.1 3.3 25.7 3.3z"/><path fill="#D8544A" d="M220.3 161.3c-2.3.4-4.6.8-6.8.8-14.6 0-22.6-11.4-25.7-3.4-1.3 3.5-1.9 7.3-1.9 11.3 0 18.7 15 33.8 33.5 33.8h.9v-42.5z"/><path fill="#E87970" d="M227.6 183.1c-3.1 0-5.6 2.5-5.6 5.6s2.5 5.6 5.6 5.6c3.1 0 5.6-2.5 5.6-5.6s-2.5-5.6-5.6-5.6zm.9-7.7c1.6 0 3-1.4 3-3s-1.4-3-3-3-3 1.4-3 3 1.3 3 3 3zm11.2-.9c-2.1 0-3.9 1.7-3.9 3.9s1.7 3.9 3.9 3.9 3.9-1.7 3.9-3.9-1.8-3.9-3.9-3.9zm2.5-12c-1.6 0-3 1.4-3 3s1.4 3 3 3 3-1.4 3-3-1.3-3-3-3z"/><path fill="#DCDCDC" d="M206.6 115.2h27.5v3.4h-27.5v-3.4z"/><path fill="#EFEFEF" d="M192.8 107.5h-39.5c-1.9 0-3.4 1.5-3.4 3.4v.9c0 1.9 1.5 3.4 3.4 3.4v74.9c0 10.9 8.9 19.7 19.8 19.7s19.8-8.9 19.8-19.7v-74.9c1.9 0 3.4-1.5 3.4-3.4v-.9c-.1-1.8-1.6-3.4-3.5-3.4z"/><path fill="#DCDCDC" d="M153.3 115.2h39.5v3.4h-39.5v-3.4z"/><path fill="#F4B459" d="M178.9 133.3c4.2 0 7.8 2 7.8 2v54.8c0 7.6-6.2 13.7-13.8 13.7-7.6 0-13.8-6.1-13.8-13.7v-54.8s3.5 2 7.8 2 7.9-4 12-4z"/><path fill="#F7CB8B" d="M170.5 159.1c-2.8 0-5.2 2.3-5.2 5.2s2.3 5.2 5.2 5.2c2.8 0 5.2-2.3 5.2-5.2s-2.4-5.2-5.2-5.2zm8.1-4.3c1.6 0 3-1.4 3-3s-1.4-3-3-3-3 1.4-3 3 1.4 3 3 3zm0 19.7c-2.1 0-3.9 1.7-3.9 3.9s1.7 3.9 3.9 3.9 3.9-1.7 3.9-3.9-1.7-3.9-3.9-3.9zm-9.9 10.4c-1.5 0-2.6 1.1-2.6 2.6s1.1 2.6 2.6 2.6 2.6-1.1 2.6-2.6c0-1.4-1.2-2.6-2.6-2.6z"/><ellipse fill="#DE756C" cx="209.1" cy="175.4" rx="6.9" ry="6.9"/></svg>