<svg xmlns="http://www.w3.org/2000/svg" xmlns:xlink="http://www.w3.org/1999/xlink" width="100" height="100" viewBox="0 0 100 100"><path fill="#3B5665" d="M50 0c27.615 0 50 22.386 50 50 0 27.615-22.385 50.002-50 50.002-27.614 0-50-22.387-50-50.002C0 22.385 22.386 0 50 0z"/><defs><path id="a" d="M50 0c27.615 0 50 22.386 50 50 0 27.615-22.385 50.002-50 50.002-27.614 0-50-22.387-50-50.002C0 22.385 22.386 0 50 0z"/></defs><clipPath id="b"><use xlink:href="#a" overflow="visible"/></clipPath><g clip-path="url(#b)"><path fill="#D7B354" d="M13.999 37.011l1.996-.033L53 59.001l-.014 25.006-38.987-22.643V37.011z"/><path fill="#E3BD5A" d="M120.998 25.994l-2.031-.015L53 59.001l-.014 25.002 68.012-33.109v-24.9z"/><path fill="#F1CA65" d="M121 26L81.66 3 14 37l39 23.001L121 26z"/><path fill="#CEAA4B" d="M90.938 14.962c1.365-.682 2.049-1.576 2.049-2.47H93V8.503H79v3.958c-.016.904.664 1.811 2.045 2.5 2.732 1.366 7.16 1.366 9.893.001zm-16 8c1.365-.682 2.049-1.576 2.049-2.47H77v-3.989H63v3.958c-.016.904.664 1.811 2.045 2.501 2.732 1.365 7.16 1.365 9.893 0zM80 27.503v3.958c-.016.904.664 1.811 2.045 2.5 2.732 1.365 7.16 1.365 9.893 0 1.361-.68 2.043-1.57 2.047-2.462H94v-3.997H80zm-21.062 3.459c1.365-.682 2.049-1.576 2.049-2.47H61v-3.989H47v3.958c-.016.904.664 1.811 2.045 2.501 2.732 1.365 7.16 1.365 9.893 0zM65 38.461c-.016.904.664 1.811 2.045 2.501 2.732 1.364 7.16 1.364 9.893 0 1.365-.682 2.049-1.576 2.049-2.47H79v-3.989H65v3.958zm-34-2c-.016.904.664 1.811 2.045 2.501 2.732 1.364 7.16 1.364 9.893 0 1.365-.682 2.049-1.576 2.049-2.47H45v-3.989H31v3.958zm17 10c-.016.904.664 1.811 2.045 2.501 2.732 1.365 7.16 1.365 9.893 0 1.365-.683 2.049-1.576 2.049-2.47H62v-3.989H48v3.958z"/><path fill="#FAD880" d="M74.938 18.973c2.73-1.364 2.73-3.576 0-4.941-2.732-1.364-7.16-1.364-9.893 0-2.73 1.365-2.73 3.577 0 4.941 2.732 1.364 7.16 1.364 9.893 0zm17 6.06c-2.732-1.364-7.16-1.364-9.893 0-2.73 1.364-2.73 3.576 0 4.94 2.732 1.365 7.16 1.365 9.893 0 2.73-1.364 2.73-3.576 0-4.94zm-33 1.94c2.73-1.365 2.73-3.576 0-4.941-2.732-1.364-7.16-1.364-9.893 0-2.73 1.365-2.73 3.576 0 4.941 2.732 1.364 7.16 1.364 9.893 0zm18 5.059c-2.732-1.364-7.16-1.364-9.893 0-2.73 1.365-2.73 3.577 0 4.941 2.732 1.364 7.16 1.364 9.893 0 2.73-1.364 2.73-3.576 0-4.941zm-34-1.999c-2.732-1.364-7.16-1.364-9.893 0-2.73 1.364-2.73 3.576 0 4.94 2.732 1.365 7.16 1.365 9.893 0 2.73-1.364 2.73-3.576 0-4.94zm17 10c-2.732-1.364-7.16-1.364-9.893 0-2.73 1.364-2.73 3.576 0 4.94 2.732 1.364 7.16 1.364 9.893 0 2.73-1.364 2.73-3.576 0-4.94zm31-29.06c2.73-1.364 2.73-3.576 0-4.94-2.732-1.364-7.16-1.364-9.893 0-2.73 1.364-2.73 3.576 0 4.94 2.732 1.364 7.16 1.364 9.893 0z"/></g></svg>