<svg xmlns="http://www.w3.org/2000/svg" width="100" height="100" viewBox="0 0 100 100"><path fill="#AAE1F3" d="M50 0c27.614 0 50 22.386 50 50s-22.386 50-50 50S0 77.614 0 50 22.386 0 50 0z"/><path fill="#2B414D" d="M76 26.999H28c-3.866 0-7 3.136-7 7v56.719A49.755 49.755 0 0 0 50 100c12.649 0 24.193-4.707 33-12.453V33.999c0-3.864-3.134-7-7-7z"/><path fill="#CCD0D2" d="M74 26.999H26c-3.866 0-7 3.136-7 7v55.216C27.522 95.961 38.286 100 50 100s22.478-4.039 31-10.785V33.999c0-3.864-3.134-7-7-7z"/><path fill="#324D5B" d="M70 24.999H24a7 7 0 0 0-7 7v55.547c8.807 7.746 20.351 12.453 33 12.453a49.748 49.748 0 0 0 27-7.927V31.999a7 7 0 0 0-7-7z"/><path fill="#2B414D" d="M57 99.506V25h-1v74.635l1-.129z"/><path fill="#E19178" d="M39 43h26v15H39V43z"/><path fill="#CA826C" d="M43 47.001V49h16v-1.999H43zM43 54h16v-1.999H43V54z"/><path fill="#E4E7E7" d="M64 24h-6a1 1 0 0 0-1 1v74.502a49.774 49.774 0 0 0 8-1.794V25a1 1 0 0 0-1-1zm0 0h-6a1 1 0 0 0-1 1v74.502a49.774 49.774 0 0 0 8-1.794V25a1 1 0 0 0-1-1z"/><path fill="#CA826C" d="M56 43h1v15h-1z"/><path d="M56 47.001h1V49h-1zm0 5h1V54h-1z" fill="#B57561"/><path fill="#2B414D" d="M27 25h-3.02A7 7 0 0 0 17 31.999v55.547a50.19 50.19 0 0 0 10 6.837V25z"/><path fill="#41545F" d="M25 93.294a49.64 49.64 0 0 0 2 1.098V25h-2v68.294z"/><path d="M62 98.54c.335-.082.668-.168 1-.258V24h-1v74.54zm-3 .637l1-.179V24h-1v75.177z" fill="#CCD0D2"/></svg>