<svg xmlns="http://www.w3.org/2000/svg" viewBox="0 0 751.9 665.6"><circle fill="#FFF" cx="39.3" cy="458.7" r="2.5"/><circle fill="none" stroke="#666" stroke-width="3" stroke-linecap="round" stroke-miterlimit="10" stroke-dasharray="12.0169,12.0169" cx="357.9" cy="354.1" r="309.8"/><path fill="#EDEDED" d="M60.6 328.9C27.1 328.9 0 356.1 0 389.5s27.1 60.6 60.6 60.6 60.6-27.1 60.6-60.6-27.1-60.6-60.6-60.6z"/><path fill="#2B414D" d="M23 402.9h-2.4c-.1 7-1.2 9.7-1.2 9.7l7.3 1.2s-3.7-4.6-3.7-10.9zm0-18.2h-2.4v17H23v-17zm0 18.2h-2.4c-.1 7-1.2 9.7-1.2 9.7l7.3 1.2s-3.7-4.6-3.7-10.9zm0-18.2h-2.4v17H23v-17z"/><path fill="#475F6C" d="M21.8 399.2c2 0 3.6 1.6 3.6 3.6s-1.6 3.6-3.6 3.6-3.6-1.6-3.6-3.6c0-1.9 1.6-3.6 3.6-3.6z"/><path fill="#2B414D" d="M12 383.4l46-21.2c1.4-.7 3.7-.7 5.1 0l46.1 21.2c1.4.7 1.4 1.9 0 2.6l-46.1 21.2c-1.4.7-3.7.7-5.1 0L12 386c-1.5-.7-1.5-1.9 0-2.6zm48.6 12.2c13.9 0 25.2 4.9 25.2 10.9s-11.3 10.9-25.2 10.9c-13.9 0-25.2-4.9-25.2-10.9s11.3-10.9 25.2-10.9z"/><path fill="#455E6B" d="M60.6 395.6c13.9 0 25.2 4.9 25.2 10.9v.1l-2.2-17.1c0-5.4-10.3-9.7-23-9.7s-23 4.3-23 9.7l-2.1 15.8c1.4-5.4 12.1-9.7 25.1-9.7z"/><path fill="#4B6370" d="M85.8 406.5v.1l-2.2-17.1c0-5.4-10.3-9.7-23-9.7v15.8c13.9 0 25.2 4.9 25.2 10.9z"/><path fill="#EDEDED" d="M250.8 0c32 0 58 26 58 58s-26 58-58 58-58-26-58-58 26-58 58-58z"/><path fill="#2B414D" d="M284.5 50.5c0-17-13.8-30.7-30.8-30.7-14.5 0-26.6 10-29.9 23.5v.1c-.2.9-.4 1.8-.5 2.7-.3 1.3-.7 2.7-1.1 3.4-2.4 4.1-6.5 11.3-6.5 11.3-.7 1.3-.3 3 1 3.7l6.7 3.9v13.7c0 1.4 1.2 2.6 2.6 2.6h12.4v14.8c0 1.4 1.2 2.6 2.6 2.6l27.1-9.4c1.4 0 2.6-1.2 2.6-2.6v-14c8.3-5.5 13.8-14.9 13.8-25.6z"/><path fill="#415F6F" d="M257.8 38v-1.5l-1.5-.4-.4-1.7 1.1-1.1c-.2-.5-.5-.9-.8-1.3l-1.5.4-1.2-1.2.4-1.5c-.4-.3-.9-.6-1.3-.8l-1.1 1.1-1.7-.5-.4-1.5h-1.5l-.4 1.5-1.7.4-1.1-1.1c-.5.2-.9.5-1.3.8l.4 1.5-1.2 1.2-1.5-.4c-.3.4-.6.9-.8 1.3l1.1 1.1-.5 1.7-1.5.4v1.5l1.5.4.4 1.7-1.1 1.1c.2.5.5.9.8 1.3l1.5-.4 1.2 1.2-.4 1.5c.4.3.9.6 1.3.8l1.1-1.1 1.7.5.4 1.5h1.5l.4-1.5 1.7-.4 1.1 1.1c.5-.2.9-.5 1.3-.8l-.4-1.5 1.2-1.2 1.5.4c.3-.4.6-.9.8-1.3l-1.1-1.1.5-1.7 1.5-.4zm-8.1 3.5c-2.4.7-5-.8-5.6-3.2-.7-2.4.8-5 3.2-5.6 2.4-.7 5 .8 5.6 3.2.7 2.5-.8 5-3.2 5.6z"/><path fill="#E2574C" d="M275.7 51.9l1.9-.6c0-.6 0-1.3-.1-1.9l-1.9-.4-.7-2.1 1.3-1.5c-.3-.6-.7-1.1-1.1-1.6l-1.9.6-1.6-1.4.4-1.9c-.6-.3-1.1-.6-1.7-.9l-1.3 1.5-2.1-.4-.6-1.9c-.6 0-1.3 0-1.9.1l-.4 1.9-2.1.7-1.5-1.3c-.6.3-1.1.7-1.6 1.1l.6 1.9-1.4 1.6-2-.4c-.3.6-.6 1.1-.9 1.7l1.5 1.3-.4 2.1-1.9.6c0 .6 0 1.3.1 1.9l1.9.4.7 2.1-1.3 1.5c.3.6.7 1.1 1.1 1.6l1.9-.6 1.6 1.4-.4 1.9c.6.3 1.1.6 1.7.9l1.3-1.5 2.1.4.6 1.9c.6 0 1.3 0 1.9-.1l.4-1.9 2.1-.7 1.5 1.3c.6-.3 1.1-.7 1.6-1.1l-.6-1.9 1.4-1.6 1.9.4c.3-.6.6-1.1.9-1.7l-1.5-1.3.5-2.1zm-9.8 4.9c-3.2 0-5.8-2.6-5.8-5.8 0-3.2 2.6-5.8 5.8-5.8s5.8 2.6 5.8 5.8c0 3.2-2.6 5.8-5.8 5.8z"/><path fill="#668292" d="M252.9 58.9c.1-.5.2-1 .2-1.5l-1.4-.6-.2-1.7 1.2-.9c-.2-.5-.3-1-.6-1.4l-1.6.2-1-1.4.6-1.4-.1-.1c-.4-.3-.7-.6-1.1-.9l-1.2.9-1.6-.7-.2-1.6c-.5-.1-1-.2-1.5-.2l-.6 1.4-1.7.2-.9-1.3c-.5.2-1 .3-1.4.6l.2 1.6-1.4 1-1.4-.6c-.4.4-.7.8-.9 1.2l.9 1.3-.7 1.6-1.5.2c-.1.5-.2 1-.2 1.5l1.4.6.2 1.7-1.2.9c.2.5.3 1 .6 1.4l1.6-.2 1 1.4-.6 1.4.1.1c.4.3.7.6 1.1.9l1.2-.9 1.6.7.2 1.6c.5.1 1 .2 1.5.2l.6-1.4 1.7-.2.9 1.3c.5-.2 1-.3 1.4-.6l-.2-1.6 1.4-1 1.4.6c.4-.4.7-.8.9-1.2l-.9-1.3.7-1.6 1.5-.2zm-4.5-.9c-.7 2.5-3.2 3.9-5.7 3.3-2.5-.7-3.9-3.2-3.3-5.7.7-2.5 3.2-3.9 5.7-3.3 2.5.7 3.9 3.3 3.3 5.7z"/><path fill="#EDEDED" d="M661.4 328.3c-33.8 0-61.2 27.4-61.2 61.2 0 33.8 27.4 61.2 61.2 61.2s61.2-27.4 61.2-61.2c0-33.8-27.4-61.2-61.2-61.2z"/><path fill="#FFF" d="M632 367.5l-2.4 49c0 1 1.1 16.2 1.8 26.4 8.9 5 19.1 7.9 30 7.9 33.8 0 61.2-27.4 61.2-61.2 0-10.6-2.7-20.7-7.5-29.4h-75.8c-4 0-7.3 3.2-7.3 7.3z"/><path fill="#DADADA" d="M683.4 421.4l-36.6-50.2-15.8 15.7-1.4 28.9 1.8 27.1c6.7 3.8 14.1 6.3 22 7.3l30-28.8z"/><path fill="#E7E7E7" d="M629.5 415.3l1.8 27.6c8.9 5 19.1 7.9 30.1 7.9 24.6 0 45.8-14.5 55.6-35.5h-87.5z"/><path fill="#CFCFCF" d="M683.4 421.4l-4.5-6.1h-49.3v.5l1.8 27.1c6.7 3.8 14.1 6.3 22 7.3l30-28.8z"/><path fill="#3E4E5C" d="M668.1 385.9l-18.9 8.7 15.3 34.2 8.2-7.3 10.8-.1-15.4-35.5z"/><path fill="#52606D" d="M654.1 387.1l18.3 8.4-14.8 33.2-7.9-7.4h-10.4l14.8-34.2z"/><path fill="#394754" d="M668.1 385.9l-18.9 8.7 9.1 20.2c1.1-.5 2.1-1.3 3.2-1.3 1.7 0 3.6 2.2 5.2 1.8 1.6-.4 2.4-3.2 3.9-3.9 1.5-.7 4.1.4 5.4-.7.9-.7 1-2.4 1.3-3.8l-9.2-21z"/><path fill="#4C5965" d="M654.1 387.1l-8.5 19.7c.3 1.4.4 3 1.3 3.8 1.3 1.1 3.9 0 5.4.7 1.5.7 2.3 3.5 3.9 3.9 1.6.4 3.5-1.8 5.2-1.8.8 0 1.7.5 2.6 1l8.4-18.9-18.3-8.4z"/><path fill="#EFC75E" d="M684.6 389.5c0 1.7-2.5 3.2-2.8 4.8-.4 1.7 1.3 4.1.5 5.6-.7 1.5-3.6 1.7-4.6 3-1 1.3-.6 4.2-1.9 5.3-1.3 1.1-3.9 0-5.4.7-1.5.7-2.3 3.5-3.9 3.9-1.6.4-3.5-1.8-5.2-1.8s-3.6 2.2-5.2 1.8c-1.6-.4-2.4-3.2-3.9-3.9-1.5-.7-4.1.4-5.4-.7-1.3-1.1-.8-3.9-1.9-5.3-1-1.3-3.9-1.5-4.6-3-.7-1.5.9-3.9.5-5.6-.4-1.6-2.8-3-2.8-4.8 0-1.7 2.5-3.2 2.8-4.8.4-1.7-1.3-4.1-.5-5.6.7-1.5 3.6-1.7 4.6-3 1-1.3.6-4.2 1.9-5.3 1.3-1.1 3.9 0 5.4-.7 1.5-.7 2.3-3.5 3.9-3.9 1.6-.4 3.5 1.8 5.2 1.8s3.6-2.2 5.2-1.8c1.6.4 2.4 3.2 3.9 3.9 1.5.7 4.1-.4 5.4.7 1.3 1.1.8 3.9 1.9 5.3 1 1.3 3.9 1.5 4.6 3 .7 1.5-.9 3.9-.5 5.6.3 1.7 2.8 3.1 2.8 4.8z"/><path fill="#D7B354" d="M661.4 372.4c-9.5 0-17.2 7.7-17.2 17.1 0 9.5 7.7 17.1 17.2 17.1s17.2-7.7 17.2-17.1c-.1-9.4-7.8-17.1-17.2-17.1zm0 30.6c-7.4 0-13.5-6-13.5-13.5 0-7.4 6-13.5 13.5-13.5 7.4 0 13.5 6 13.5 13.5-.1 7.5-6.1 13.5-13.5 13.5zm0-20.8c-4.1 0-7.3 3.3-7.3 7.3 0 4.1 3.3 7.3 7.3 7.3 4.1 0 7.3-3.3 7.3-7.3s-3.3-7.3-7.3-7.3z"/><path fill="#CCD0D2" d="M722 398.1h-22.7c-1.4 0-2.4 1.1-2.4 2.4 0 1.4 1.1 2.4 2.4 2.4h21.8c.3-1.5.6-3.1.9-4.8zm-25.1-22c0 1.4 1.1 2.4 2.4 2.4h22.3c-.3-1.7-.7-3.3-1.1-4.9h-21.2c-1.3 0-2.4 1.1-2.4 2.5zm0 12.2c0 1.4 1.1 2.4 2.4 2.4h23.2v-1.2c0-1.2 0-2.5-.1-3.7h-23.1c-1.3.1-2.4 1.2-2.4 2.5z"/><path fill="#FFF" d="M742.9 334.4c1.8 1.8 9 4.9 9 4.9s-7.2 3.1-9 4.9c-1.8 1.8-4.9 9-4.9 9s-3.1-7.2-4.9-9c-1.8-1.8-9-4.9-9-4.9s7.2-3.1 9-4.9c1.8-1.8 4.9-9 4.9-9s3.1 7.2 4.9 9zM39 230.3c1.5 1.5 7.3 4 7.3 4s-5.8 2.5-7.3 4-4 7.3-4 7.3-2.5-5.8-4-7.3-7.3-4-7.3-4 5.8-2.5 7.3-4 4-7.3 4-7.3 2.5 5.9 4 7.3zM330.1 77.2c.8.8 3.8 2.1 3.8 2.1s-3.1 1.3-3.8 2.1c-.8.8-2.1 3.8-2.1 3.8s-1.3-3.1-2.1-3.8c-.8-.8-3.8-2.1-3.8-2.1s3.1-1.3 3.8-2.1 2.1-3.8 2.1-3.8 1.3 3 2.1 3.8zm-215.4 31.4c.8.8 4 2.2 4 2.2s-3.2 1.4-4 2.2-2.2 4-2.2 4-1.4-3.2-2.2-4c-.8-.8-4-2.2-4-2.2s3.2-1.4 4-2.2c.8-.8 2.2-4 2.2-4s1.4 3.2 2.2 4zm228.6-45.2c1.2 1.2 6 3.3 6 3.3s-4.8 2.1-6 3.3c-1.2 1.2-3.3 6-3.3 6s-2.1-4.8-3.3-6c-1.2-1.2-6-3.3-6-3.3s4.8-2.1 6-3.3c1.2-1.2 3.3-6 3.3-6s2 4.8 3.3 6zm218 81.9c.8.8 4.2 2.3 4.2 2.3s-3.3 1.4-4.2 2.3-2.3 4.2-2.3 4.2-1.4-3.3-2.3-4.2-4.2-2.3-4.2-2.3 3.3-1.4 4.2-2.3 2.3-4.2 2.3-4.2 1.4 3.4 2.3 4.2zM531.7 8.8c1.4 1.4 6.8 3.7 6.8 3.7s-5.4 2.3-6.8 3.7S528 23 528 23s-2.3-5.4-3.7-6.8c-1.4-1.4-6.8-3.7-6.8-3.7s5.4-2.3 6.8-3.7C525.6 7.4 528 2 528 2s2.3 5.4 3.7 6.8zM124.6 447.7c1.3 1.3 6.6 3.6 6.6 3.6s-5.2 2.3-6.6 3.6-3.6 6.6-3.6 6.6-2.3-5.2-3.6-6.6-6.6-3.6-6.6-3.6 5.2-2.3 6.6-3.6 3.6-6.6 3.6-6.6 2.3 5.3 3.6 6.6zm602.1-126.8c.9.9 4.5 2.5 4.5 2.5s-3.6 1.6-4.5 2.5-2.5 4.5-2.5 4.5-1.6-3.6-2.5-4.5-4.5-2.5-4.5-2.5 3.6-1.6 4.5-2.5c.9-.9 2.5-4.5 2.5-4.5s1.6 3.6 2.5 4.5z"/><path fill="#EDEDED" d="M96.8 129.1c31.8 0 57.6 25.8 57.6 57.6s-25.8 57.6-57.6 57.6-57.6-25.8-57.6-57.6 25.8-57.6 57.6-57.6z"/><path fill="#F5F5F5" d="M130.5 218.6l-17.3-7-15.4 6.8-16.2-6.8-17.6 7 5.6-54.9L83 159l14.7 3.9 14.2-4.1 13.4 4.4 5.2 55.4z"/><path fill="#E5E5E5" d="M81.6 211.6l16.2 6.9-.1-55.6L83 159z"/><path fill="#EFEFEF" d="M112 158.7l-14.3 4.2.1 55.6 15.4-6.8z"/><path fill="#E45136" d="M113.2 208.7l14.2 5.7-4.6-49.3-10.9-3.6-14.1 4.1-14.6-3.8-11.1 3.8-5 48.8 14.5-5.7 16.1 6.8 15.5-6.8z"/><path fill="#CE4830" d="M97.8 191.2l14.7-8.2-.6-21.4-14.1 29.6z"/><path fill="#BD3E25" d="M81.7 208.7l16.1 6.8v-49.8l-14.6-3.9zm31.5 0l14.2 5.8-4.6-49.4-10.9-3.5z"/><path fill="#F0C949" d="M97.8 148c-8.9 0-16.2 7.3-16.2 16.3 0 .4.3 5.2 1.5 7.4 4 9.3 14.7 19.5 14.7 19.4 0 .1 10.7-10.2 14.7-19.5 1.4-3 1.5-7.2 1.5-7.4 0-8.9-7.3-16.2-16.2-16.2zm0 24.2c-4.3 0-7.8-3.5-7.8-7.9s3.5-7.9 7.8-7.9 7.8 3.5 7.8 7.9-3.5 7.9-7.8 7.9z"/><path fill="#FFF" d="M97.8 156.1c-4.5 0-8.1 3.6-8.1 8.1s3.6 8.1 8.1 8.1 8.1-3.6 8.1-8.1-3.6-8.1-8.1-8.1zm0 13.5c-3 0-5.4-2.4-5.4-5.4 0-3 2.4-5.4 5.4-5.4s5.4 2.4 5.4 5.4c0 2.9-2.4 5.4-5.4 5.4z"/><path fill="#EDEDED" d="M624.6 127.9c32.5 0 58.8 26.3 58.8 58.8s-26.3 58.8-58.8 58.8-58.8-26.3-58.8-58.8c0-32.4 26.3-58.8 58.8-58.8z"/><path fill="#26A6D1" d="M628.1 196.6c0-11.3-11.3-20.5-25.3-20.5s-25.3 9.2-25.3 20.5 11.3 20.5 25.3 20.5c1.2 0 2.4-.1 3.6-.2 5.3 4.1 10.5 5.1 10.6 5-1.8-1.9-3-4.3-3.7-6.6 8.8-3.3 14.8-10.4 14.8-18.7z"/><path fill="#FFF" d="M594.6 193.8c-1.6 0-2.9 1.3-2.9 2.9 0 1.6 1.3 2.9 2.9 2.9s2.9-1.3 2.9-2.9c0-1.6-1.3-2.9-2.9-2.9zm9.4 0c-1.6 0-2.9 1.3-2.9 2.9 0 1.6 1.3 2.9 2.9 2.9 1.6 0 2.9-1.3 2.9-2.9 0-1.6-1.3-2.9-2.9-2.9z"/><path fill="#2295BC" d="M628.1 196.6c0-9.5-8-17.5-18.8-19.8v.4c0 10.9 7 20.4 17.6 25.8.8-2 1.2-4.1 1.2-6.4zm-47-.1c0-8.7 6.1-16.2 14.8-19.6-10.6 2.5-18.3 10.3-18.3 19.7 0 9.8 8.6 18.1 20 20-9.7-3-16.5-10.8-16.5-20.1z"/><path fill="#52606D" d="M669.2 148.4c-5.5-2.6-11.9-4.1-18.8-4.1-20.8 0-37.6 13.7-37.6 30.5 0 12.3 9 22.9 21.9 27.7-1 3.4-2.7 7-5.5 9.8.1.2 8-1.3 15.8-7.4 1.8.2 3.6.3 5.4.3 14.1 0 26.4-6.3 32.8-15.6.1-1 .1-2.1.1-3.2.1-14.4-5.2-27.7-14.1-38z"/><path fill="#FFF" d="M634 170.3c-2.6 0-4.7 2.1-4.7 4.7s2.1 4.7 4.7 4.7 4.7-2.1 4.7-4.7-2.1-4.7-4.7-4.7zm16.5 0c-2.6 0-4.7 2.1-4.7 4.7s2.1 4.7 4.7 4.7 4.7-2.1 4.7-4.7-2.1-4.7-4.7-4.7zm16.4 0c-2.6 0-4.7 2.1-4.7 4.7s2.1 4.7 4.7 4.7 4.7-2.1 4.7-4.7-2.1-4.7-4.7-4.7z"/><path fill="#3E4E5C" d="M632.8 211.2c2.7-2.8 4.4-6.4 5.5-9.8-12.9-4.8-21.9-15.4-21.9-27.7 0-12.2 8.8-22.7 21.6-27.6-14.6 4.2-25.1 15.5-25.1 28.8 0 12.3 9 22.9 21.9 27.7-1 3.4-2.7 7-5.5 9.8.1.1 2.3-.3 5.5-1.5-1.2.3-1.9.4-2 .3z"/><path fill="#3E4E5C" d="M634 179.7c-2.6 0-4.7-2.1-4.7-4.7 0-1 .3-1.9.8-2.7-1.2.9-2 2.3-2 3.9 0 2.6 2.1 4.7 4.7 4.7 1.6 0 3-.8 3.9-2-.8.5-1.7.8-2.7.8zm16.5 0c-2.6 0-4.7-2.1-4.7-4.7 0-1 .3-1.9.8-2.7-1.2.9-2 2.3-2 3.9 0 2.6 2.1 4.7 4.7 4.7 1.6 0 3-.8 3.9-2-.8.5-1.7.8-2.7.8zm16.4 0c-2.6 0-4.7-2.1-4.7-4.7 0-1 .3-1.9.8-2.7-1.2.9-2 2.3-2 3.9 0 2.6 2.1 4.7 4.7 4.7 1.6 0 3-.8 3.9-2-.7.5-1.7.8-2.7.8z"/><circle fill="#EDEDED" cx="465.1" cy="58" r="57.4"/><path fill="#344955" d="M459.4 115.1c1.9.2 3.8.3 5.7.3 2.3 0 4.6-.2 6.9-.4v-8.8h-12.6v8.9z"/><path fill="#405C6A" d="M461.2 103.8c2.5-1.3 6.4-1.3 8.9 0s2.5 3.5 0 4.8c-2.5 1.3-6.4 1.3-8.9 0-2.4-1.3-2.4-3.5 0-4.8z"/><path fill="#344955" d="M464 92.5v13.8c0 .6.8 1.1 1.7 1.1s1.7-.5 1.7-1.1V92.5H464z"/><path fill="#324D5B" d="M466.2 94.8c-9.4 0-18.8-3.6-26-10.7-14.3-14.3-14.3-37.7 0-52 .6-.6 1.7-.6 2.3 0 .6.6.6 1.7 0 2.3-13.1 13.1-13.1 34.3 0 47.4 13.1 13.1 34.3 13.1 47.3 0 .6-.6 1.7-.6 2.3 0 .6.6.6 1.7 0 2.3-7 7.1-16.4 10.7-25.9 10.7z"/><path fill="#283E49" d="M489.9 81.7c-.7.7-1.5 1.4-2.3 2.1l2.3 2.3c.8-.7 1.5-1.3 2.3-2.1.5-.5.6-1.3.3-1.9l-.7-.7c-.6-.3-1.4-.2-1.9.3zm-49.4-45.1c.7-.8 1.3-1.5 2.1-2.3.5-.5.6-1.2.3-1.8l-.8-.8c-.6-.3-1.3-.2-1.8.3-.7.7-1.4 1.5-2.1 2.3l2.3 2.3z"/><path fill="#405C6A" d="M439.2 29.7c-.9.9-.9 2.4 0 3.2l52.2 52.2c.9.9 2.4.9 3.2 0 .9-.9.9-2.4 0-3.2l-52.2-52.2c-.9-.9-2.4-.9-3.2 0z"/><path fill="#2EA9D3" d="M466.3 28.1c16.5 0 29.9 13.4 29.9 29.9s-13.4 29.9-29.9 29.9-29.9-13.4-29.9-29.9 13.4-29.9 29.9-29.9z"/><path fill="#AEC225" d="M460.1 52.2c3.3-2.4 4.9 2.4 6.2.9 2.2-2.7.7-5.1 3.5-10.9 2.9-5.8 3.1-4.7 5.3-9.5.5-1.1.9-2 1-2.9-3.1-1.1-6.4-1.6-9.8-1.6-11.7 0-21.9 6.8-26.8 16.6.8 1.9 2 3.9 3.8 6.1 4.4 5.3 9.1 7.6 16.3 12 7.3 4.4 6.2 6.4 4.4 8.4-1.8 2-4.5 10.6.7 13.3 2.5 1.5 4 2.3 4.7 3.1 5-.5 9.6-2.3 13.5-4.9.6-1.2 1.1-2.5 1.6-3.9 2.1-7.3 4.6-20-1.3-18.6-5.2 1.2-11.7 2.4-14.8 2.9-3.1.4-6.8-2.7-11-4.9-.5-2.5-.6-3.7 2.7-6.1z"/><path fill="#2998BE" d="M469.7 85.6c-16.5 0-29.9-13.4-29.9-29.9 0-9.6 4.6-18.2 11.6-23.6-9 5.1-15.1 14.8-15.1 25.9 0 16.5 13.4 29.9 29.9 29.9 6.9 0 13.2-2.3 18.2-6.2-4.2 2.4-9.3 3.9-14.7 3.9z"/><path fill="#9CAE21" d="M483.1 82.4c-4 2-8.6 3.2-13.4 3.2-1.3 0-2.6-.1-3.9-.3 1.8 1.1 2.9 1.7 3.5 2.4.6-.1 1.3-.1 1.9-.2h.2c.7-.1 1.4-.3 2-.4l.6-.2c.6-.2 1.1-.3 1.7-.5l.5-.2c1.4-.5 2.8-1.1 4.1-1.8l.3-.2c.6-.3 1.2-.7 1.7-1l.2-.1.4-.3.2-.4zM441 47.6c1.8-6.2 5.5-11.7 10.5-15.5l-.3.2c-.4.2-.7.4-1.1.7l-.6.4c-.3.2-.7.5-1 .7l-.6.5c-.3.3-.6.5-.9.8l-.6.6c-.3.3-.6.5-.8.8l-.7.7-.7.7c-.3.4-.7.8-1 1.2l-.3.3c-.4.5-.8 1.1-1.2 1.6l-.1.1c-.3.5-.7 1-1 1.6l-.2.3c-.3.5-.5 1-.8 1.5v.1c.3.8.8 1.7 1.4 2.7z"/><circle fill="#FFF" cx="158.9" cy="144.3" r="4.2"/><circle fill="#FFF" cx="627.9" cy="283.3" r="4.2"/><circle fill="#FFF" cx="396.9" cy="16.3" r="4.2"/><circle fill="#FFF" cx="615.3" cy="262.7" r="2.5"/><circle fill="#FFF" cx="634.3" cy="456.7" r="2.5"/><circle fill="#FFF" cx="172.3" cy="151.7" r="2.5"/><circle fill="#FFF" cx="53.3" cy="241.7" r="2.5"/><circle fill="#FFF" cx="182.3" cy="76.7" r="2.5"/><circle fill="#FFF" cx="538.3" cy="29.7" r="2.5"/><circle fill="#FFF" cx="550.3" cy="128.7" r="2.5"/></svg>