<svg xmlns="http://www.w3.org/2000/svg" viewBox="0 0 600 600"><path fill="#586980" d="M299.4-.9C133.8-.9-.4 133.3-.4 298.9c0 165.6 134.2 299.8 299.8 299.8s299.8-134.2 299.8-299.8C599.2 133.3 465-.9 299.4-.9z"/><path fill="#324D5B" d="M472.3 436.1c.6-2.7.9-5.5.9-8.4 0-21.5-17.4-39-39-39s-39 17.4-39 39c0 21.5 17.4 39 39 39 2.9 0 5.7-.3 8.4-.9l56.5 56.5c10.4-9.3 20.2-19.4 29.2-30.1l-56-56.1z"/><path fill="#B4E7F8" d="M299.4 149c82.8 0 149.9 67.1 149.9 149.9s-67.1 149.9-149.9 149.9-149.9-67.1-149.9-149.9S216.6 149 299.4 149z"/><path fill="#2D4552" d="M454.7 453.8c-2.7.6-5.5.9-8.4.9-21.5 0-39-17.4-39-39 0-7.7 2.3-14.8 6.1-20.9-10.9 6.9-18.1 19-18.1 32.9 0 21.5 17.4 39 39 39 2.9 0 5.7-.3 8.4-.9l56.5 56.5c4.2-3.8 8.4-7.6 12.4-11.6l-56.9-56.9z"/><path fill="#FFF" d="M290.3 388.8c-44.6 0-80.8-36.3-80.8-80.8 0-5 4.1-9.1 9.1-9.1s9.1 4.1 9.1 9.1c0 34.6 28.1 62.7 62.7 62.7 5 0 9.1 4.1 9.1 9.1-.1 4.9-4.2 9-9.2 9z"/><path fill="#3C5663" d="M299.4 113c-102.7 0-185.9 83.2-185.9 185.9s83.2 185.9 185.9 185.9 185.9-83.2 185.9-185.9S402 113 299.4 113zm0 335.7c-82.8 0-149.9-67.1-149.9-149.9S216.6 149 299.4 149s149.9 67.1 149.9 149.9-67.1 149.8-149.9 149.8z"/><path fill="#A2CFDF" d="M299.4 149c-46 0-87.1 20.7-114.6 53.3 26.1-22 59.8-35.3 96.6-35.3 82.8 0 149.9 67.1 149.9 149.9 0 36.8-13.3 70.5-35.3 96.6 32.6-27.5 53.3-68.6 53.3-114.6 0-82.8-67.1-149.9-149.9-149.9z"/></svg>